<svg id="Слой_1" data-name="Слой 1" xmlns="http://www.w3.org/2000/svg" viewBox="0 0 410.06 497.28"><path d="M460,308.27c-1.2-7.81,4-14.72,10.65-15.95,5-.92,10.38,1.39,13.69,5.8a65.07,65.07,0,0,1,4.56,27.54c-1.21,22-13.59,36.95-18.25,42a230.85,230.85,0,0,0-4.56-36.25A233.69,233.69,0,0,0,460,308.27Z" transform="translate(-80.44 -14.22)" style="fill:#f3b793;stroke:#000;stroke-width:3px"/><path d="M184.68,459.05c57.22,65.35,207.37,70.47,260.11,0,25.23-33.71,36.06-95.27,21.3-121.79-1.83-3.28-8.34-13.73-7.61-27.54.74-14,8.49-23.43,12.17-29,17.41-26.36,9.18-65.1,3-81.19C451.87,142.32,359.77,118,339.83,137.19c-5.95,5.74-3.28,13.26-9.88,16.67-15,7.74-35.54-27.56-64.65-29.72-45.22-3.36-88,74.94-89.75,78.29C152.84,245,152,286.5,117.75,301c-7.34,3.11-11,2.78-15.21,7.25-24,25.58,21.94,116.51,54.76,114.53a18.31,18.31,0,0,0,6.08-1.45A108.75,108.75,0,0,0,184.68,459.05Z" transform="translate(-80.44 -14.22)" style="fill:#f3b793;stroke:#000;stroke-width:3px"/><path d="M103.3,274.2,82,158.21c10.61-23.92,36.67-72.83,92.79-107.29C288.67-19,419.58,36.05,430.34,40.77c12.19,17.66,21.69,33.48,28.9,46.4,9.13,16.34,13.95,26.89,13.69,40.59a58.69,58.69,0,0,1-3,17.4A115,115,0,0,0,441,117.61c-89-58.77-276.18,2.78-325.53,113.09A154.81,154.81,0,0,0,103.3,274.2Z" transform="translate(-80.44 -14.22)" style="fill:#333;stroke:#000;stroke-width:3px"/><path d="M462.28,295.94a180.12,180.12,0,0,0,4.57-85.54,203.72,203.72,0,0,1-56.28-20.29c-34.34-18.61-56-43.81-56.29-43.5-.17.16,6.55,7,38,37.7a174.67,174.67,0,0,1-66.93-8.7A168.06,168.06,0,0,1,260,135a71.16,71.16,0,0,0,13.69,33.35,76.15,76.15,0,0,0,28.9,23.19A110.81,110.81,0,0,1,258.45,193a108.86,108.86,0,0,1-41.07-15.94A137.5,137.5,0,0,0,208.25,193a141,141,0,0,0-13.69,66.7l-18.25-39.15a145.85,145.85,0,0,0-1.52,78.29,95.25,95.25,0,0,0-7.61,16c-5.38,14.66-4.74,24.29-7.6,24.65-4,.5-5-18.56-19.78-30.45-7.51-6.06-16.15-8.37-22.69-9.34a82,82,0,0,1-9.25-26.9c-9-58.61,53-109,66.93-120.34,76.87-62.52,220.47-87.65,279.89-23.2C478.48,155,491.61,198.3,485.1,239.4A139.12,139.12,0,0,1,462.28,295.94Z" transform="translate(-80.44 -14.22)" style="fill:#775d3e;stroke:#000;stroke-width:3px"/><path d="M261.49,278.54a76.84,76.84,0,0,1,25.86-4.34c3.06-.53,4.58-1,4.57-1.45s-2.56-1.05-7.61-1.45h-9.13a40.68,40.68,0,0,0-10.64,2.9c-1.09.46-2.1.95-3.05,1.44Z" transform="translate(-80.44 -14.22)"/><path d="M396.87,267a73.75,73.75,0,0,1,30.43,2.9c.82.23,1.33.23,1.52,0,.3-.38-.21-1.34-1.52-2.9-1.39-.52-2.91-1-4.57-1.45a51.15,51.15,0,0,0-7.6-1.45c-2.23-.33-16.77-2.39-18.26,1.45A2.29,2.29,0,0,0,396.87,267Z" transform="translate(-80.44 -14.22)"/><path d="M241.72,301.74l59.32-2.9c1.12,20-14.29,33.12-25.86,31.9-9.11-1-18.17-11.11-19.77-24.65H241.72Z" transform="translate(-80.44 -14.22)"/><path d="M377.1,293h53.24c-1.2,18.75-16,29.46-25.86,27.55-7.5-1.45-14-10.5-15.21-21.75H377.1Z" transform="translate(-80.44 -14.22)"/><path d="M253.89,336.54c.44-.66,4,1.41,9.13,2.9,2.1.61,10.07,2.74,18.25,1.45,10.5-1.67,17.33-8.35,18.25-7.25.46.55-1.11,2.42-1.52,2.9-6.11,7.23-16.43,8.37-19.77,8.7-4.22.41-11.52,1-18.26-2.9C256.48,340.3,253.43,337.21,253.89,336.54Z" transform="translate(-80.44 -14.22)"/><path d="M387,328.14c.45-.66,4,1.4,9.13,2.9,2.1.6,10.07,2.74,18.25,1.44,10.51-1.66,17.34-8.35,18.26-7.24.46.55-1.12,2.42-1.52,2.9-6.11,7.23-16.43,8.37-19.78,8.69-4.21.42-11.52,1-18.25-2.9C389.54,331.89,386.5,328.8,387,328.14Z" transform="translate(-80.44 -14.22)"/><path d="M319.3,356.84c.56.54-.71,2.44-1.53,3.9-2.46,4.38-3.73,9.93-3.18,13.61,1,6.83,8.71,10.14,7.75,11.48-.58.82-3.76.1-6.09-1.45-4.85-3.23-5.13-9.55-5.27-12.81-.1-2.15-.45-10,4.49-13.45C316.7,357.25,318.75,356.31,319.3,356.84Z" transform="translate(-80.44 -14.22)"/><path d="M331.47,384.38a3.66,3.66,0,0,1-1.52,0c-2-.41-3.39-2.42-3.05-2.9s3.49,1.41,4.51.4a1.66,1.66,0,0,0,.06-1.85c-.87-1.55-4-1.46-4.57-1.45-1.47.05-2,.42-3,0a2.6,2.6,0,0,1-1.52-1.45,2.24,2.24,0,0,1,0-1.45H330a17.31,17.31,0,0,0,1.52,1.45c1.67,1.42,2.7,1.78,3,2.9a2.78,2.78,0,0,1,0,1.45A4,4,0,0,1,331.47,384.38Z" transform="translate(-80.44 -14.22)"/><path d="M365.24,381.53a3.6,3.6,0,0,0,1.52.08c2-.31,3.52-2.24,3.2-2.73s-3.56,1.22-4.52.15a1.65,1.65,0,0,1,.05-1.84c1-1.51,4.09-1.25,4.64-1.21,1.47.12,2,.53,3,.16a2.64,2.64,0,0,0,1.6-1.37,2.31,2.31,0,0,0,.09-1.44l-7.6-.4a17,17,0,0,1-1.6,1.36c-1.76,1.34-2.8,1.63-3.21,2.74a2.75,2.75,0,0,0-.08,1.45A3.94,3.94,0,0,0,365.24,381.53Z" transform="translate(-80.44 -14.22)"/><path d="M371,382.93c-.11-.59,2.42-.84,4.48-2.62,4-3.43,3.19-10,3.12-10.43-.63-4.55-3.55-8-9.13-14.49-2.44-2.86-4.93-5.4-4.56-8.7.14-1.24.71-2.82,1.52-2.9,1.25-.13,1.83,3.38,4.57,7.25,2.92,4.13,4.73,3.6,7.6,7.25a20.28,20.28,0,0,1,4.17,11.49c.07,1.32.36,10.62-5.1,13.25C374.85,384.39,371.14,383.63,371,382.93Z" transform="translate(-80.44 -14.22)"/><path d="M298,375.68c.83.09,1.43,1.65,1.52,2.9a6.72,6.72,0,0,1-1.52,4.35c-.9,1.28-1.38,2.68-1.52,15.95,0,3.47,0,7.36,0,11.6L392.31,409a42.6,42.6,0,0,0,0-20.3c-1.63-6.32-4.78-11.83-3-13.05,1-.72,3.28.39,4.56,1.45,2.72,2.25,3,5.85,3,7.25.66,12.07,1.23,24,1.53,27.55,1.36,16.39,11.24,27.79,9.12,29-.59.33-1.62-.42-3-1.45-6.79-5-9-12.75-10.65-18.85a67.69,67.69,0,0,1-1.52-7.25L295,414.83a18.43,18.43,0,0,1,0,5.8c-.48,2.95-1.44,4.11-6.09,11.6-3.5,5.65-4.7,7.81-7.6,8.7-.61.18-2.37.72-3,0-1.21-1.3,2.14-5.54,6.08-11.6,4.43-6.82,6.64-10.22,7.61-13.05,2-5.93.06-7.62.45-25.39A33.34,33.34,0,0,1,295,380C295.63,378.41,296.84,375.56,298,375.68Z" transform="translate(-80.44 -14.22)"/><path d="M287.35,475.72c-.71-1.1-2.29-3.5-1.52-4.35,1.64-1.79,11.32,6.29,24.34,11.6,4.06,1.66,24.27,9.49,47.16,4.35,8.84-2,15.35-3.45,21.29-8.7,4.43-3.91,8.21-9.64,10.65-8.7,1.31.51,1.5,2.67,1.52,2.9.43,5.7-9.32,10.78-13.69,13.05-18,9.39-36.42,8.91-41.07,8.7-10.75-.5-18-2.81-27.38-5.8C297.64,485.26,291.25,481.69,287.35,475.72Z" transform="translate(-80.44 -14.22)"/><path d="M410.83,293h17.86c1,7.32-4.22,13-8.93,13S409.81,300.36,410.83,293Z" transform="translate(-80.44 -14.22)" style="fill:#fff"/><path d="M282.79,298.84H298c.87,5.69-3.59,10.15-7.6,10.15S281.92,304.53,282.79,298.84Z" transform="translate(-80.44 -14.22)" style="fill:#fff"/><path d="M91.13,222q5.33,24.65,10.64,49.3c18.7-58.54,50.89-91.81,68.46-107.29,85.09-75,233.71-91.15,289-34.8a81.21,81.21,0,0,1,12.17,15.95A40.12,40.12,0,0,0,472.93,135c.4-19.38-13.54-33.36-18.25-37.69C434.93,88,358.91,54.71,266.06,78.47,147.07,108.91,97.77,208,91.13,222Z" transform="translate(-80.44 -14.22)" style="fill:#b15e54;stroke:#000;stroke-width:3px"/><path d="M150.45,393.08" transform="translate(-80.44 -14.22)" style="fill:#ff5a64"/><path d="M120,338a124.7,124.7,0,0,1,21.29,31.89,119.78,119.78,0,0,1,7.61,21.75l3,1.45a82.28,82.28,0,0,0-9.12-30.45,86.18,86.18,0,0,0-21.3-26.09Z" transform="translate(-80.44 -14.22)"/></svg>