<?xml version="1.0" ?><svg viewBox="0 0 64 64" xmlns="http://www.w3.org/2000/svg"><title/><g data-name="Day 30" id="d560eaf6-3208-47b8-90fe-4e2d8c08e231"><path d="M60,29v9H57.83a3.3,3.3,0,0,1-3.11-4.38L47,33.07V42L39,59H25L17,42V33.07l-7.72.55A3.3,3.3,0,0,1,6.17,38H4V29l13-4.64V5H47V24.36Z" data-name="&lt;Path&gt;" fill="#eff3f7" id="0d7f1ae0-cfd9-4df0-8b07-8e381f8118bb"/><path d="M24,35v7.39A6.74,6.74,0,0,1,21,48h0" data-name="&lt;Path&gt;" fill="none" id="bae7ee9d-601d-4186-9dce-bf1088771807" stroke="#da1c49" stroke-linecap="round" stroke-linejoin="round" stroke-width="2"/><path d="M60,29v9H57.83a3.3,3.3,0,0,1-3.11-4.38L47,33.07V42L39,59H32V5H47V24.36Z" data-name="&lt;Path&gt;" fill="#c9d4db" id="8d607d7c-e0ef-4d92-a103-9b1e5ef5a6cf"/><path d="M41,35v7.39A6.74,6.74,0,0,0,44,48h0" data-name="&lt;Path&gt;" fill="none" id="a6c75065-d3b2-41cb-b372-d5fce32ea5ae" stroke="#da1c49" stroke-linecap="round" stroke-linejoin="round" stroke-width="2"/><path d="M18,30.38V33l-1,1.67v-1.6l-7.72.55A3.3,3.3,0,0,1,6.17,38H4V33.25l11.77-4.41A1.65,1.65,0,0,1,18,30.38Z" data-name="&lt;Path&gt;" fill="#adb0b3" id="b762a6f9-30c0-4f89-928c-07785a328b45"/><path d="M46,30.38V33l1,1.67v-1.6l7.72.55A3.3,3.3,0,0,0,57.83,38H60V33.25L48.23,28.84A1.65,1.65,0,0,0,46,30.38Z" data-name="&lt;Path&gt;" fill="#adb0b3" id="9c35034e-71c1-4cd6-848d-e7e1d30f9ea6"/><polyline data-name="&lt;Path&gt;" fill="none" id="bcbf40fb-a8ba-40d0-b03f-bf871e51f45c" points="34 15 31 15 31 19 33.75 22 37 18.5 37 11 27 11 27 22 32 26 32 59" stroke="#da1c49" stroke-linecap="round" stroke-linejoin="round" stroke-width="2"/><path d="M47,24.36V5H17V24.36L4,29v9H6.17a3.3,3.3,0,0,0,3.12-4.38L17,33.07V42l8,17H39l8-17V33.07l7.72.55A3.3,3.3,0,0,0,57.83,38H60V29Z" data-name="&lt;Path&gt;" fill="none" id="793058db-eea1-41f0-a0e0-89fe56c69485" stroke="#001c63" stroke-linecap="round" stroke-linejoin="round" stroke-width="2"/><circle cx="24" cy="31" data-name="&lt;Path&gt;" fill="none" id="232b9652-4643-447f-8b28-af59d85b3f4e" r="3" stroke="#001c63" stroke-linecap="round" stroke-linejoin="round" stroke-width="2"/><circle cx="41" cy="31" data-name="&lt;Path&gt;" fill="none" id="f837101c-306d-48b0-b88f-a83ae04b5151" r="3" stroke="#001c63" stroke-linecap="round" stroke-linejoin="round" stroke-width="2"/><polygon data-name="&lt;Path&gt;" fill="#c9d4db" id="5ec9a8f5-f971-49b0-b8a1-3a566706e3b9" points="20 6 20 22 22 14 22 6 20 6"/></g></svg>