<svg id="Layer_1" data-name="Layer 1" xmlns="http://www.w3.org/2000/svg" viewBox="0 0 482.58 581.33"><defs><style>.cls-1{fill:#fff;}.cls-2{fill:#010101;}.cls-3{fill:#c79c6f;}.cls-4{fill:#e80f13;}</style></defs><g id="_ffffffff" data-name="#ffffffff"><path class="cls-1" d="M191.4,201.3a31.49,31.49,0,0,1,7.6,3.2A14.8,14.8,0,0,1,191.4,201.3Z" transform="translate(-92.04 -50.97)"/><path class="cls-1" d="M466.6,223a9.83,9.83,0,0,1,5.4-5.2A44,44,0,0,1,466.6,223Z" transform="translate(-92.04 -50.97)"/><path class="cls-1" d="M178.8,252.9a9,9,0,0,1,6.6,3.1A33.07,33.07,0,0,1,178.8,252.9Z" transform="translate(-92.04 -50.97)"/><path class="cls-1" d="M278.2,252.9c4.2.7,8.5,1,12.6,2.2,4.7,1.3,8.9,4,13.1,6.4-2.2,0-4.6-.6-6.7.3-8.9,3.4-18.3,4.8-27.8,5.4-9,.3-18.6,0-26.6-4.6a60.08,60.08,0,0,1,15.6-6.8c-.2,2.7,0,5.6,2.3,7.4,4.5,3.7,11.4,3.9,16.5,1.1a6.82,6.82,0,0,0,3.9-6.3C281.4,255.8,279.4,254.5,278.2,252.9Z" transform="translate(-92.04 -50.97)"/><path class="cls-1" d="M378,261.4a51.14,51.14,0,0,1,23.5-8.3c-2.7,1.8-4.5,5.5-2.3,8.4,4.4,5.7,13.5,5.9,19.2,2,2.7-1.9,3.2-5.5,2.1-8.4,6.2,1.8,12.6,3.8,18,7.6a38.2,38.2,0,0,1-14.7,4.2,95.22,95.22,0,0,1-41-5.6C381.3,261.2,379.7,261.4,378,261.4Z" transform="translate(-92.04 -50.97)"/><path class="cls-1" d="M271.5,258.4a9,9,0,0,1,1.7-4.7c.8.5,2.5,1.4,3.3,1.8-.3,1-.6,2.1-1,3.1C274.2,259.2,272.8,258.5,271.5,258.4Z" transform="translate(-92.04 -50.97)"/><path class="cls-1" d="M411.6,255c1.8-.8,3.9-1.2,4.9,1,.2,2.8-2.7,3.3-4.8,2.6C411.7,257.4,411.6,256.2,411.6,255Z" transform="translate(-92.04 -50.97)"/><path class="cls-1" d="M473.6,274.9c1.8-2.7,4.8-4.2,7.4-6A26.75,26.75,0,0,1,473.6,274.9Z" transform="translate(-92.04 -50.97)"/><path class="cls-1" d="M178.7,271c3.1.5,5.8,2.2,8.4,3.8A24.49,24.49,0,0,1,178.7,271Z" transform="translate(-92.04 -50.97)"/><path class="cls-1" d="M458.3,388.5l2.9.3c.1.4.4,1.3.5,1.7-.9-.1-1.8-.3-2.7-.4A5.58,5.58,0,0,1,458.3,388.5Z" transform="translate(-92.04 -50.97)"/><path class="cls-1" d="M456,443.5c1.5.7,3,1.2,4.6,1.8h-3.8C456.6,444.9,456.2,444,456,443.5Z" transform="translate(-92.04 -50.97)"/><path class="cls-1" d="M230.3,443.5c1.2,2,1.1,4.4,1.1,6.6A28.46,28.46,0,0,1,230.3,443.5Z" transform="translate(-92.04 -50.97)"/><path class="cls-1" d="M464.7,492.5a22.68,22.68,0,0,1,5.8.4A7.3,7.3,0,0,1,464.7,492.5Z" transform="translate(-92.04 -50.97)"/><path class="cls-1" d="M213.6,531.2c1.2-.6,2.5-1.2,3.7-1.8v2C216.1,531.3,214.8,531.3,213.6,531.2Z" transform="translate(-92.04 -50.97)"/><path class="cls-1" d="M216.4,541.2c2.9-2.9,2.9,4.4-.1,1.8A10.28,10.28,0,0,1,216.4,541.2Z" transform="translate(-92.04 -50.97)"/></g><g id="_010101ff" data-name="#010101ff"><path class="cls-2" d="M202.5,89.5A241.27,241.27,0,0,1,479.2,484.4c.9,6.2,1.9,12.4,2.2,18.7.7,14.4-1.8,28.7-6.2,42.4,1,.5,1.9,1.1,2.9,1.6,3.9-4,6.4-11.4,13-11,3.7-.1,4.2,4.4,4.9,7.1,1.3,8,2.3,16.3.4,24.2-1.3,4.6-7.8,5.4-11.2,2.7-3.4-2-4.7-6.8-9-7.4.9,4.3,3.4,8,4,12.4,1,5.6-1.6,11-2.9,16.3-1.9,7.7-3.9,16-1.2,23.7,1,3.5,3.4,6.3,5.7,9-11.7-3.7-18.7-15.1-21.4-26.4-1.2-5.7-2.2-11.6-.7-17.3,1.5-5.2,5.2-9.4,7.6-14.1.7-1.1.2-2.4.2-3.6-3.2,2.8-4.7,7-8.1,9.6s-10,1.6-11.1-3.1a60,60,0,0,1-1.3-27.3c.2-3,3.8-4,6.2-2.7,4.6,2.3,7.7,7,12.6,9.1a29.84,29.84,0,0,0-.4-4.2c-3.6-14.2-7.4-28.4-11.3-42.5-16.3,9-33.4,16.8-51.3,22C347.1,540.1,285.7,536,233,511.8c-2.3,10.3-4.4,20.6-6.5,30.9-.7,4.3-2.1,8.6-2,13,6.4-2.5,9.6-12,17.6-10.1,2.5,6.2,2.4,13,2.6,19.5-.4,4.8-.1,10.3-3.5,14.2a8.45,8.45,0,0,1-10.3-1.1,72.31,72.31,0,0,1-5.5-6.9,19.53,19.53,0,0,1-2.3.2c2.7,6.8,9.2,11.7,10.2,19.2,1.3,11.8-1.5,24.3-9,33.7a25.23,25.23,0,0,1-11.1,7.9c2.6-3.3,5-6.9,5.5-11.2,1.6-11.2-3.5-21.8-6.6-32.2-1.5-6.2,1.8-12.1,3.2-18-4.1.5-5.1,5.2-8.1,7.4a8.5,8.5,0,0,1-9.8,1.4c-3.4-3.2-3.4-8.3-3.8-12.6-.1-6.3,0-12.7,1.6-18.8.9-3.7,6-4,8.7-2,3.5,2.6,5.7,6.5,8.9,9.5.6-.7,1.7-2,2.3-2.6a114.57,114.57,0,0,1-8-54c.4-1.8-1.9-2.2-3-3.1a241.53,241.53,0,0,1-88.4-99.5C89.9,343.4,85,280.5,102,223.8c15.9-55,52.5-103.4,100.5-134.3M307.4,75.6a215.58,215.58,0,0,0-94.2,34.6c-48.1,31.5-82.8,82.6-93.9,139.1a217.63,217.63,0,0,0,91.4,223.3c1.9-12.6,3-25.3,2-38-1.4-14.9-5.4-29.4-9.4-43.8-.4-1.4-.8-3-2.2-3.8-4.7-3.2-9-7.3-11.1-12.7-3.7-9.3-1.9-19.5-1.1-29.1-4.4-15.6-9.1-31.2-11.9-47.2-5.1-28.5-3.9-58.6,6.1-85.9,8.2-23.1,22.4-43.9,40-61,2.9.3,5.5,2.2,8.2,3.1a26,26,0,0,0-7.4-3.8,219.49,219.49,0,0,1,24.8-20.3l4.2,2.1-3-3a246.36,246.36,0,0,1,29.4-17c1.2.7,2.4,1.4,3.7,2.1-.7-1-1.4-1.9-2.1-2.8,5.3-2.4,10.7-4.7,16.2-6.8,2.2,1.3,4.4,2.5,6.7,3.8a10.47,10.47,0,0,1-1.1-.8c-1.5-1.1-3.1-2.2-4.6-3.3,4.2-1.5,8.5-3.3,12.9-4.2,3,.2,5.8,1.7,8.8,2.2-2.2-1-4.5-1.8-6.7-2.8,12.8-4.2,26.7-4.3,39.7-1.5a208.58,208.58,0,0,1,44.1,15c24.5,11.6,47.1,27.6,64.9,48.1a152.55,152.55,0,0,1,29.5,51.2c7.7,22,9.6,45.6,7.8,68.8-1.6,17.7-5.2,35.1-9.5,52.3-1,3.2.4,6.4.8,9.6,1.3,8.1,1.9,17-1.7,24.6-2.3,4.8-6.6,8.2-10.4,11.8-1.7,5.3-2.6,10.9-3.8,16.4-2.1,10.9-4.1,22-4,33.1-.2,10,1.3,20,3.2,29.9a211.87,211.87,0,0,0,40.7-45.4,217.51,217.51,0,0,0-1-243.9c-26.2-38.4-64.9-68.3-108.9-83.4a216.12,216.12,0,0,0-97.1-10.6m18.4,33.2c-29.7,7.7-57.8,22.7-79.2,44.7a141.39,141.39,0,0,0-34.3,57.8c-7,24.5-5.2,50.5-.9,75.2,1.2,5.7,1.2,11.8,3.9,17.1,3.5,7.7,3.9,16.4,3.2,24.8a230.39,230.39,0,0,0,2.3,24.9c1.6,13.9,6,27.3,7.8,41.2,1.6,10.2,4.7,20.4,10.9,28.8,6.5,9,16.7,15.1,27.4,17.6,2.5-1.6,3.7-4.5,5-7.1,4.2-8.7,4.4-18.6,3.1-28-2-12.9-6.1-25.3-10.4-37.5-1.6-4.4-3.3-9.1-2.3-13.9,1.1-6.5,5.1-12,9.6-16.5,9.5-9.5,21.4-15.9,33.2-22-4.6-2.9-9.6-5.6-13-10.1-2.4-3.3-2.7-7.6-3-11.5,8.5-2.8,17.3-4.7,25.3-8.6,1.4-1.8,2-4.1,3.1-6a27.29,27.29,0,0,1,9.2-9.9c-4.8,4.7-9.1,10.1-10.3,16.9-7.5,4.1-15.7,7.1-23.8,9.8a14,14,0,0,0,7.1,10.6c10.7,7.2,23.7,9,35.5,13.5,2.8.9,5.7,2.8,8.6,1.4,9.4-3.6,18.7-7.4,28.2-10.9,6.6-2.6,13.8-6.9,14.8-14.6-7.3-2.7-14.8-5.2-21.8-8.8-2.6-1-2.7-4-3.7-6.2-1.7-4.8-5.3-8.6-9.1-11.9,6.1,3.3,9.7,9.5,12.3,15.6,8.1,4.4,17.4,6,26,9.1-.7,3.7-.7,7.9-3.1,11-2.3,3.3-5.6,5.7-8.9,8,17.3,7,27.8,24,34.3,40.6,2.4,5.8,1.8,12.2,1.2,18.3-1.9,15.5-5.8,30.9-4.7,46.6a68.15,68.15,0,0,0,5.2,21.8,47.49,47.49,0,0,0,21-11.1c10.4-9.4,15-23.4,16.9-36.9,1.5-11.3,3.4-22.5,4.5-33.8,0-10.4,1.7-20.6,1.5-31,.8-7.8-1.7-15.5-.3-23.2.1-5.7,3.8-10.4,4-16.1.6-7.9,1.8-15.8,2.2-23.7,2.1-25-.4-51.2-11.7-73.9a142.92,142.92,0,0,0-37.2-48c2.5-2.5,4.9-5.2,7.4-7.6-3.3,1.6-6.6,3.4-8.5,6.8-22.7-18.3-50.3-30.1-79-34.8-3-.2-6.3.8-9.5,1.5M191.4,201.3a16.11,16.11,0,0,0,7.6,3.2,38.41,38.41,0,0,0-7.6-3.2M466.6,223a37.84,37.84,0,0,0,5.4-5.2,9.53,9.53,0,0,0-5.4,5.2M178.8,252.9a39.73,39.73,0,0,0,6.6,3.1,8.82,8.82,0,0,0-6.6-3.1m294.8,22a26.75,26.75,0,0,0,7.4-6c-2.6,1.8-5.5,3.3-7.4,6M178.7,271a26.53,26.53,0,0,0,8.4,3.8,25.57,25.57,0,0,0-8.4-3.8m299,9.7c-10.1,6-17,17.5-16.6,29.4A53.09,53.09,0,0,1,468,300c5.4-6,12.3-10.4,18.3-15.8,1.5-1.1,2.4-4.1.2-5-2.8-1.7-6.1.3-8.8,1.5m-291,8.7c.6,1.6,1,3.3,2.5,4.3,5.7,4.4,11.8,8.1,17.2,12.9,3.3,3,5.8,6.6,8.8,10-.2-9.7-6-18.4-13.4-24.3-4.3-3.1-10.1-6.6-15.1-2.9M466,321c-5.6,16-6.3,33.2-5.3,50,2,5.4,9.1,9.1,14.5,6.2a24.46,24.46,0,0,0,13.2-21.1c.4-19-8.8-36.5-10-55.3-5.9,5.5-9.8,12.7-12.4,20.2M197.8,309.3c.1,17.5-7.1,34.2-7.1,51.7.1,6.2,1.4,12.8,5.6,17.6,3.6,4.2,8.7,8.4,14.6,7.7a13.61,13.61,0,0,0,8.4-6.8c.6-9.1-.6-18.3-1.8-27.4-2.4-15.6-7.6-31.9-19.7-42.8m104.1,28.4c-5.7,1-11.3,3.6-15,8.2-5.6,6.6-6.5,15.8-5.9,24.1,1.6,16.8,3.5,33.6,5.3,50.5,9.5-.2,19.8-1.4,27.4-7.7s9.8-17.4,7.4-26.7c-1.4-4.4-2.8-9.7-7.1-12.1-9.7-3.4-20.1-5.4-30.4-4.4,9.1-2.5,18.7-.7,27.8,1.1,3.9,1.3,7.5-1.5,11.4-1.9a89.47,89.47,0,0,1,39.5,2.7c10.9-1.5,22-5,33-2-11.1-1-22.2,1.4-32.5,5.2-9,8.9-9.7,25-.7,34.2,9.4,9.6,23.2,12.6,36,14.3,1.7-17.4,3.4-34.8,3.3-52.3.2-7.2,0-15-4.3-21.1-3.8-6.3-10.9-9.6-17.9-11.1-15.7-3.5-31.8.2-47.7-1-9.8-.7-19.9-1.8-29.6,0m156.4,50.8a10.41,10.41,0,0,1,.6,1.6c.9.1,1.8.3,2.7.4-.1-.4-.4-1.3-.5-1.7l-2.8-.3m-2.8,18.7c1.7,2.4,4.7,2.5,7.3,3.1-2.1-1.6-4.4-3.3-7.3-3.1M216.3,417.9c.2,3.3,3-1.6,0,0m16.6,6.9c3.4,13.7,8.5,26.9,13,40.1a131.59,131.59,0,0,0-7.5,23.8,218.12,218.12,0,0,0,208.4-10.3,137.45,137.45,0,0,0-7.7-19.6c3-11.4,7-22.6,9.1-34.2a52.68,52.68,0,0,1-27.9,21c-4.2,1.7-9,1.6-12.9,4-14.3,8.9-29.4,16.7-45.5,21.5-13.5,4-27.9,3-41.5.4-16.5-3.5-32.8-9.4-46.9-18.9-3.5-2.3-6.4-5.7-10.8-6.3-12.1-3.3-22.6-11.3-29.8-21.5M456,443.5c.2.4.6,1.3.8,1.8h3.8a36.56,36.56,0,0,1-4.6-1.8m-225.7,0a21.24,21.24,0,0,0,1.1,6.6c0-2.2.1-4.5-1.1-6.6m234.4,49a7.3,7.3,0,0,0,5.8.4,23,23,0,0,0-5.8-.4M211.3,502c.2,3.3,3-1.7,0,0m1.9,14c-2,.8,0,3.2,1.5,2.1,1.9-.9,0-3.3-1.5-2.1m254,5.3c-1.2,1.4,1.4,3.1,2.4,1.6s-1.4-3.1-2.4-1.6m-253.6,9.9c1.2.1,2.5.1,3.7.2v-2c-1.2.6-2.5,1.2-3.7,1.8m254.5,1c-1.8.3-1.1,3.2.7,2.7s1-3.3-.7-2.7m10.4,18.6a19.42,19.42,0,0,1,2.4.2c-.2,1.4-.5,2.8-.7,4.1.8.7,1.5,1.4,2.3,2.1-1.1.5-2.3,1.1-3.4,1.6,2.2,3.1,4.4,6.4,7.6,8.7,1.7,1.5,4.1.6,6.2.6a48.14,48.14,0,0,0-1.6-29.3c-6.2,1.7-8.3,8.2-12.8,12m-262.1-9.6c0,.4-.1,1.3-.1,1.8,2.9,2.6,3-4.7.1-1.8m233.4.6c-.7,9.4-1.5,19.1,1.7,28.1,2,.3,4.2.9,5.9-.4,3.4-2.4,4.7-6.5,6.1-10.2-2,.3-4,.6-5.9,1,1.8-1.7,3.6-3.4,5.3-5.1-2.2-2.5-6.4-4.6-5.4-8.5a17.3,17.3,0,0,0-7.7-4.9M199,547.6c-3.6,7.2-2.3,15.5-2.4,23.3.2,3,2,6.3,5.4,6.5,5.1-1.4,7.3-6.7,10.1-10.7-1.4-.2-2.7-.3-4.1-.5.9-1.1,1.9-2.1,2.9-3.1l-2-2.3c1-.4,1.9-.9,2.9-1.3-4-4.3-7.3-9.5-12.8-11.9m268.3,2c-.9,3.4-.2,6.7.6,10q3.9-.15,7.8,0a29.27,29.27,0,0,0-1.7-11.4c-2.2.5-4.5,1-6.7,1.4m-240.5,9.5c1,.3,2,.7,3,1-.6,1-1.1,2-1.7,3,.7.7,1.3,1.4,2,2.1-1.3.6-2.6,1.3-4,2,3.3,3.6,5.4,9.4,10.8,10.2,3.9-.5,4.2-5.2,4.5-8.3.1-7,.9-14.4-2.1-21-4.5,3.2-8.5,7.2-12.5,11M216.4,556a44.37,44.37,0,0,0-1,12.1c1.2-.5,2.4-1.1,3.6-1.6,1.3.5,2.7,1,4,1.5a48.29,48.29,0,0,0,.5-10.7c-1.4.1-2.7.3-4.1.5Z" transform="translate(-92.04 -50.97)"/><path class="cls-2" d="M241.8,210.8c10.8-8.1,25.1-9.2,38.1-8.3a106.57,106.57,0,0,1,21.7,4.1c-.7,4.7-1.5,9.5-2.4,14.2,9.9,4.6,18.5,12.4,22.2,22.8,1.9,5.4,3,11.5,1,17-2.9,4.8-9.3,5.1-14.3,5.8-5.2,11.8-19.4,15.6-31.3,15.1,7.6-1.6,15.4-3.9,21.1-9.4,2.3-2,3.5-4.8,4.4-7.6a22.77,22.77,0,0,0-5.1.9,100.77,100.77,0,0,1-40.4,4.8c-6-.8-12.5-1.9-17-6.2,1.9-6.4,1-13.6,4.5-19.5,3.7-7,10.7-11.7,18.3-13.5,9.2-2.1,19.2-2.3,28.1,1.3a28.17,28.17,0,0,1,16.5,17.4c1.2,3.6.8,7.5.7,11.2a41.64,41.64,0,0,0,10.5-2.1,31.43,31.43,0,0,0-6.9-26.3c-6.3-7.5-15.1-13.5-25-14.8-4.2-.7-8.6-.4-12.8-1.6-16.3-4.2-34.4,2.2-45,15.1,2.6-7.8,6.4-15.6,13.1-20.4m8.7,29.7c-5.3,4.5-7.9,11.6-8.2,18.4,15.1-7.8,33-11.4,49.6-6.7,5.7,1.5,10.7,4.7,15.5,8a22.93,22.93,0,0,0-2.8-12.8c-5.2-9.5-16.1-14.7-26.6-14.9-9.6-.3-20.1,1.3-27.5,8m27.7,12.4c1.2,1.6,3.2,2.9,3.1,5.1a6.93,6.93,0,0,1-3.9,6.3c-5.1,2.8-12,2.6-16.5-1.1-2.3-1.8-2.5-4.7-2.3-7.4a63.66,63.66,0,0,0-15.6,6.8c8,4.6,17.6,4.9,26.6,4.6a91.42,91.42,0,0,0,27.8-5.4c2.1-.9,4.5-.3,6.7-.3-4.2-2.4-8.4-5-13.1-6.4-4.3-1.2-8.6-1.5-12.8-2.2m-6.7,5.5c1.3.1,2.7.8,4,.2.4-1,.7-2.1,1-3.1-.8-.5-2.5-1.4-3.3-1.8A8.18,8.18,0,0,0,271.5,258.4Z" transform="translate(-92.04 -50.97)"/><path class="cls-2" d="M373.4,206.6c16.8-4.8,35.6-6.9,52.3-.3,10.5,4.1,17.8,13.9,20.3,24.7-10.4-12.8-28.3-19.2-44.4-15.2-4.1,1.2-8.5,1-12.7,1.3-4.7.3-9.1,1.8-13.6,3C374.6,215.6,374,211.1,373.4,206.6Z" transform="translate(-92.04 -50.97)"/><path class="cls-2" d="M364.5,239.4c5.3-9.9,15-17.2,25.5-20.7-8,4.8-16.4,10-20.9,18.5a29.41,29.41,0,0,0-3.4,21.1c2.3,1.4,5.1,1.6,7.7,2.2-.5-6,.1-12.4,3.7-17.4,7.1-11.1,21.4-15.1,33.9-13.6,9.9.6,20.3,5,25.5,13.8,4,6,2.8,13.6,5,20.2-3.1,3.9-8.3,4.8-12.9,5.8-13.4,2.1-27.2.7-40.2-3-3-.7-5.9-2.8-9.1-1.7,1,5.4,5.8,8.9,10.3,11.6s9.6,3.6,14.6,4.9c-11.7.6-25.8-3.4-30.7-15.1-4.3-1.3-10.1-1.8-12.1-6.5-1.9-6.6.1-13.9,3.1-20.1m19.1.2c-6.3,4.8-9.6,12.7-9.8,20.5,5.4-2.8,10.4-6.5,16.4-8,16.5-4.6,34.2-.7,49.2,6.7-.6-6.9-3.2-14-8.5-18.6-6.4-5.3-14.7-7.5-22.9-7.7-8.6-.5-17.6,1.6-24.4,7.1M378,261.4c1.6,0,3.2-.2,4.9-.1a95.22,95.22,0,0,0,41,5.6,37.71,37.71,0,0,0,14.7-4.2c-5.4-3.8-11.8-5.7-18-7.6,1.1,3,.6,6.5-2.1,8.4-5.7,3.9-14.8,3.7-19.2-2-2.2-2.9-.4-6.6,2.3-8.4a51.12,51.12,0,0,0-23.6,8.3m33.6-6.4c0,1.2.1,2.3.1,3.5,2.1.8,4.9.2,4.8-2.6C415.5,253.8,413.4,254.2,411.6,255Z" transform="translate(-92.04 -50.97)"/><path class="cls-2" d="M447,275a44.23,44.23,0,0,1,10.2,28c-.1,8.1-3.1,16.4-9.3,21.8-3.6,3.4-8.3,5.4-13,7,7.2-4.7,14.6-10.2,17.4-18.7C456.5,300.4,452.5,286.8,447,275Z" transform="translate(-92.04 -50.97)"/><path class="cls-2" d="M220,313.1c-3.9-12.8-.3-27.3,8.1-37.5-5.3,11.9-9.5,25.9-4.5,38.6,2.8,7.5,9.3,12.4,15.6,16.9A27.76,27.76,0,0,1,220,313.1Z" transform="translate(-92.04 -50.97)"/><path class="cls-2" d="M307.4,303.9c6.9-4.2,15.1-7.2,23.3-5.8a68.66,68.66,0,0,1,2.8,14.2C324.5,310.3,315.6,308,307.4,303.9Z" transform="translate(-92.04 -50.97)"/><path class="cls-2" d="M352.1,297.8c8.1-.8,16.2,1.9,23.1,6a113.09,113.09,0,0,1-26,8.5A55.72,55.72,0,0,1,352.1,297.8Z" transform="translate(-92.04 -50.97)"/><path class="cls-2" d="M476.6,343.6c3.5-2.5,4.8-6.8,6.6-10.6,2.1,4.2,2.3,9.6-.8,13.4-4.7,5.6-13.3,6.2-19.4,2.7C467.5,347.3,472.6,346.5,476.6,343.6Z" transform="translate(-92.04 -50.97)"/><path class="cls-2" d="M196.2,339.6c2.2,3.7,3.4,8.4,7.4,10.7,4.3,2.5,9.3,3,13.9,4.6-3.6,2-7.8,3.4-12,2.5a12,12,0,0,1-10.3-9.6C194.7,345,195.6,342.3,196.2,339.6Z" transform="translate(-92.04 -50.97)"/><path class="cls-2" d="M292.3,359.1a65.59,65.59,0,0,1,43.4-7.8c6.1,1.1,12.2-.1,18.3.4,9.2.5,18.5,1.7,27,5.4a19.36,19.36,0,0,1,7.6,6c-12.9-6.3-27.6-6-41.6-5.5-8.8,1.1-17.3-1.9-26-1.8C311.3,355.3,301.8,357.6,292.3,359.1Z" transform="translate(-92.04 -50.97)"/></g><g id="_c79c6fff" data-name="#c79c6fff"><path class="cls-3" d="M325.8,108.8c3.2-.8,6.5-1.8,9.9-1.3a168.89,168.89,0,0,1,79,34.8c1.9-3.3,5.2-5.1,8.5-6.8-2.5,2.5-4.9,5.1-7.4,7.6a144.2,144.2,0,0,1,37.2,48c11.3,22.7,13.8,48.9,11.7,73.9-.4,7.9-1.6,15.8-2.2,23.7-.2,5.6-3.9,10.4-4,16.1-1.5,7.7,1,15.4.3,23.2.2,10.4-1.5,20.6-1.5,31-1.2,11.3-3.1,22.5-4.5,33.8-1.9,13.5-6.5,27.5-16.9,36.9a46.45,46.45,0,0,1-21,11.1,68.78,68.78,0,0,1-5.2-21.8c-1.1-15.7,2.7-31.1,4.7-46.6.6-6.1,1.2-12.5-1.2-18.3-6.5-16.7-17-33.6-34.3-40.6,3.3-2.3,6.6-4.7,8.9-8s2.4-7.3,3.1-11c-8.6-3.1-17.9-4.7-26-9.1-2.7-6.2-6.2-12.3-12.3-15.6,3.8,3.3,7.4,7.1,9.1,11.9,1,2.2,1.2,5.2,3.7,6.2,7,3.6,14.4,6.1,21.8,8.8-1,7.7-8.3,12-14.8,14.6-9.4,3.5-18.8,7.2-28.2,10.9-2.9,1.5-5.9-.5-8.6-1.4-11.8-4.5-24.9-6.4-35.5-13.5-3.8-2.3-6.8-6-7.1-10.6,8.1-2.8,16.2-5.7,23.8-9.8,1.2-6.8,5.5-12.2,10.3-16.9a27.29,27.29,0,0,0-9.2,9.9c-1.2,1.9-1.7,4.2-3.1,6-8.1,3.9-16.9,5.9-25.3,8.6.3,4,.6,8.2,3,11.5,3.3,4.5,8.3,7.2,13,10.1-11.8,6.1-23.7,12.5-33.2,22-4.5,4.6-8.6,10.1-9.6,16.5-1,4.8.7,9.5,2.3,13.9,4.3,12.3,8.5,24.7,10.4,37.5,1.3,9.4,1.1,19.3-3.1,28-1.3,2.6-2.5,5.5-5,7.1-10.7-2.5-20.9-8.5-27.4-17.6-6.2-8.4-9.4-18.6-10.9-28.8-1.8-13.9-6.1-27.3-7.8-41.2a230.39,230.39,0,0,1-2.3-24.9c.6-8.3.3-17-3.2-24.8-2.7-5.3-2.7-11.4-3.9-17.1-4.3-24.8-6.1-50.8.9-75.2A141.39,141.39,0,0,1,247,153.7c21-22.2,49.1-37.2,78.8-44.9m-84,102c-6.7,4.8-10.4,12.6-12.8,20.3,10.6-12.9,28.8-19.2,45-15.1,4.2,1.1,8.5.9,12.8,1.6,9.9,1.4,18.6,7.4,25,14.8a31.77,31.77,0,0,1,6.9,26.3,41.64,41.64,0,0,1-10.5,2.1c.1-3.7.4-7.6-.7-11.2A28.17,28.17,0,0,0,291,232.2c-8.9-3.6-18.8-3.4-28.1-1.3-7.6,1.8-14.6,6.5-18.3,13.5-3.5,5.9-2.6,13.1-4.5,19.5,4.5,4.3,11,5.4,17,6.2a100.77,100.77,0,0,0,40.4-4.8,28.64,28.64,0,0,1,5.1-.9c-.9,2.8-2.1,5.7-4.4,7.6-5.7,5.6-13.6,7.8-21.1,9.4,11.9.5,26.1-3.3,31.3-15.1,5-.7,11.3-1,14.3-5.8,1.9-5.5.8-11.6-1-17-3.7-10.4-12.3-18.3-22.2-22.8.9-4.7,1.7-9.4,2.4-14.2a115.33,115.33,0,0,0-21.7-4.1c-13.4-.8-27.6.2-38.4,8.4m131.6-4.2c.5,4.5,1.1,9,1.9,13.5,4.5-1.2,8.9-2.6,13.6-3,4.2-.3,8.6-.1,12.7-1.3,16.1-4,34,2.4,44.4,15.2-2.5-10.8-9.8-20.6-20.3-24.7-16.7-6.6-35.4-4.5-52.3.3m-8.9,32.8c-3,6.2-5,13.5-3.2,20.3,2,4.7,7.8,5.2,12.1,6.5,4.9,11.7,19.1,15.7,30.7,15.1-5-1.2-10.1-2.2-14.6-4.9s-9.2-6.2-10.3-11.6c3.1-1.1,6.1,1,9.1,1.7,13,3.6,26.8,5,40.2,3,4.6-1,9.9-1.9,12.9-5.8-2.2-6.6-1-14.2-5-20.2-5.2-8.9-15.6-13.2-25.5-13.8-12.5-1.5-26.8,2.5-33.9,13.6-3.7,5-4.2,11.4-3.7,17.4-2.6-.6-5.4-.8-7.7-2.2a29.41,29.41,0,0,1,3.4-21.1c4.5-8.5,12.9-13.7,20.9-18.5-10.5,3.4-20.1,10.6-25.4,20.5M447,275c5.5,11.7,9.5,25.4,5.3,38.2-2.7,8.5-10.2,14-17.4,18.7,4.6-1.6,9.3-3.6,13-7,6.2-5.5,9.2-13.7,9.3-21.8A44.29,44.29,0,0,0,447,275M220,313.1c2.7,8.9,10.4,15.6,19.2,18.1-6.2-4.5-12.8-9.4-15.6-16.9-5-12.8-.8-26.7,4.5-38.6-8.4,10.1-12,24.7-8.1,37.4m87.4-9.2c8.2,4.1,17.1,6.4,26,8.5a68.66,68.66,0,0,0-2.8-14.2c-8.1-1.5-16.3,1.5-23.2,5.7m44.7-6.1a60.17,60.17,0,0,0-2.9,14.5c8.9-1.9,17.8-4.4,26-8.5C368.2,299.7,360.2,297,352.1,297.8Z" transform="translate(-92.04 -50.97)"/><path class="cls-3" d="M250.5,240.5c7.4-6.7,17.9-8.3,27.5-8,10.5.3,21.4,5.4,26.6,14.9,2.3,3.9,2.9,8.4,2.8,12.8-4.8-3.3-9.8-6.5-15.5-8-16.6-4.7-34.5-1.1-49.6,6.7C242.6,252.1,245.1,245,250.5,240.5Z" transform="translate(-92.04 -50.97)"/><path class="cls-3" d="M383.6,239.6c6.8-5.5,15.8-7.5,24.4-7.1,8.1.2,16.5,2.4,22.9,7.7,5.4,4.6,8,11.7,8.5,18.6-15.1-7.4-32.7-11.3-49.2-6.7-6,1.4-11,5.1-16.4,8C374,252.2,377.2,244.4,383.6,239.6Z" transform="translate(-92.04 -50.97)"/><path class="cls-3" d="M477.7,280.7c2.6-1.3,6-3.3,8.8-1.4,2.2.9,1.2,3.8-.2,5-6,5.3-12.9,9.7-18.3,15.8-2.9,3-4.9,6.6-6.9,10.1C460.7,298.2,467.6,286.8,477.7,280.7Z" transform="translate(-92.04 -50.97)"/><path class="cls-3" d="M186.7,289.4c5-3.6,10.8-.2,15.1,2.9,7.5,5.8,13.3,14.5,13.4,24.3-2.9-3.3-5.4-7-8.8-10-5.4-4.7-11.5-8.5-17.2-12.9C187.8,292.7,187.3,290.9,186.7,289.4Z" transform="translate(-92.04 -50.97)"/><path class="cls-3" d="M466,321c2.6-7.5,6.5-14.7,12.3-20.3,1.2,18.8,10.4,36.3,10,55.3a24.46,24.46,0,0,1-13.2,21.1c-5.4,2.9-12.5-.8-14.5-6.2-.9-16.7-.2-33.9,5.4-49.9m10.6,22.6c-4,2.9-9.1,3.7-13.6,5.5,6.1,3.5,14.8,2.9,19.4-2.7,3.1-3.8,2.8-9.2.8-13.4C481.4,336.8,480.1,341.1,476.6,343.6Z" transform="translate(-92.04 -50.97)"/><path class="cls-3" d="M197.8,309.3c12.1,10.9,17.3,27.2,19.7,42.8,1.2,9.1,2.4,18.2,1.8,27.4a13.61,13.61,0,0,1-8.4,6.8c-5.9.7-11-3.5-14.6-7.7-4.3-4.8-5.5-11.4-5.6-17.6,0-17.5,7.2-34.2,7.1-51.7m-1.6,30.3c-.7,2.6-1.6,5.4-1,8.1a12.12,12.12,0,0,0,10.3,9.6c4.1,1,8.3-.5,12-2.5-4.6-1.6-9.7-2.1-13.9-4.6C199.7,348,198.4,343.4,196.2,339.6Z" transform="translate(-92.04 -50.97)"/><path class="cls-3" d="M301.9,337.7c9.8-1.9,19.8-.8,29.7,0,15.9,1.2,32-2.5,47.7,1,7,1.5,14,4.9,17.9,11.1,4.3,6.1,4.4,13.9,4.3,21.1.1,17.5-1.6,34.9-3.3,52.3-12.8-1.8-26.6-4.8-36-14.3-9-9.2-8.2-25.3.7-34.2,10.3-3.9,21.5-6.2,32.5-5.2-11-3-22.2.5-33,2a89.47,89.47,0,0,0-39.5-2.7c-3.8.4-7.4,3.2-11.4,1.9-9.1-1.9-18.7-3.7-27.8-1.1,10.3-1.1,20.7.9,30.4,4.4,4.3,2.4,5.7,7.7,7.1,12.1,2.4,9.3.3,20.4-7.4,26.7s-17.9,7.6-27.4,7.7c-1.8-16.8-3.7-33.6-5.3-50.5-.5-8.3.3-17.6,5.9-24.1,3.6-4.5,9.2-7.1,14.9-8.2m-9.6,21.4c9.5-1.4,19-3.7,28.7-3.4,8.7-.1,17.3,2.9,26,1.8,14-.5,28.7-.8,41.6,5.5a19.36,19.36,0,0,0-7.6-6c-8.5-3.8-17.8-5-27-5.4-6.1-.4-12.2.7-18.3-.4A65,65,0,0,0,292.3,359.1Z" transform="translate(-92.04 -50.97)"/><path class="cls-3" d="M455.5,407.2c2.9-.1,5.1,1.5,7.3,3.1C460.2,409.7,457.2,409.6,455.5,407.2Z" transform="translate(-92.04 -50.97)"/><path class="cls-3" d="M216.3,417.9C219.3,416.3,216.5,421.2,216.3,417.9Z" transform="translate(-92.04 -50.97)"/><path class="cls-3" d="M211.3,502C214.3,500.3,211.5,505.3,211.3,502Z" transform="translate(-92.04 -50.97)"/><path class="cls-3" d="M213.2,516c1.4-1.2,3.4,1.2,1.5,2.1C213.3,519.2,211.3,516.8,213.2,516Z" transform="translate(-92.04 -50.97)"/><path class="cls-3" d="M467.2,521.3c1-1.5,3.5.2,2.4,1.6S466,522.7,467.2,521.3Z" transform="translate(-92.04 -50.97)"/><path class="cls-3" d="M468.1,532.2c1.8-.6,2.5,2.3.7,2.7C467,535.5,466.2,532.5,468.1,532.2Z" transform="translate(-92.04 -50.97)"/></g><g id="_e80f13ff" data-name="#e80f13ff"><path class="cls-4" d="M478.5,550.8c4.5-3.8,6.6-10.2,12.7-12a48.1,48.1,0,0,1,1.6,29.3c-2.1,0-4.5.9-6.2-.6-3.1-2.3-5.3-5.5-7.6-8.7,1.1-.5,2.3-1.1,3.4-1.6-.8-.7-1.5-1.4-2.3-2.1.2-1.4.4-2.8.7-4.1A19.53,19.53,0,0,0,478.5,550.8Z" transform="translate(-92.04 -50.97)"/><path class="cls-4" d="M449.8,541.8a19.47,19.47,0,0,1,7.8,4.9c-.9,4,3.3,6,5.4,8.5-1.7,1.8-3.5,3.5-5.3,5.1,2-.4,3.9-.8,5.9-1-1.5,3.7-2.8,7.8-6.1,10.2-1.8,1.3-4,.7-5.9.4C448.3,560.9,449.1,551.2,449.8,541.8Z" transform="translate(-92.04 -50.97)"/><path class="cls-4" d="M199,547.6c5.5,2.4,8.8,7.6,12.7,11.8-1,.4-1.9.9-2.9,1.3l2,2.3c-1,1-1.9,2-2.9,3.1,1.4.2,2.7.3,4.1.5-2.8,4-5,9.3-10.1,10.7-3.3-.2-5.2-3.5-5.4-6.5C196.7,563.1,195.4,554.8,199,547.6Z" transform="translate(-92.04 -50.97)"/><path class="cls-4" d="M467.3,549.6c2.2-.4,4.4-.9,6.6-1.3a29.27,29.27,0,0,1,1.7,11.4q-3.9-.15-7.8,0C467.1,556.3,466.5,553,467.3,549.6Z" transform="translate(-92.04 -50.97)"/><path class="cls-4" d="M226.8,559.1c4-3.8,8-7.8,12.6-11,3,6.6,2.2,14,2.1,21-.3,3.1-.6,7.8-4.5,8.3-5.4-.8-7.5-6.6-10.8-10.2,1.3-.7,2.6-1.3,4-2-.7-.7-1.3-1.4-2-2.1.6-1,1.1-2,1.7-3C228.8,559.8,227.8,559.4,226.8,559.1Z" transform="translate(-92.04 -50.97)"/><path class="cls-4" d="M216.4,556c1,.6,2,1.1,3,1.7,1.4-.2,2.7-.3,4.1-.5a47.73,47.73,0,0,1-.5,10.7c-1.4-.5-2.7-1-4-1.5-1.2.5-2.4,1.1-3.6,1.6A48.69,48.69,0,0,1,216.4,556Z" transform="translate(-92.04 -50.97)"/></g></svg>