<?xml version="1.0" encoding="utf-8"?>
<!-- Generator: Adobe Illustrator 25.0.1, SVG Export Plug-In . SVG Version: 6.00 Build 0)  -->
<svg version="1.1" id="Layer_1" xmlns="http://www.w3.org/2000/svg" xmlns:xlink="http://www.w3.org/1999/xlink" x="0px" y="0px"
	 viewBox="0 0 660 660" style="enable-background:new 0 0 660 660;" xml:space="preserve">
<style type="text/css">
	.st0{fill:#FFFFFF;}
	.st1{fill:#010101;}
	.st2{fill:#C79C6F;}
	.st3{fill:#E80F13;}
</style>
<g>
	<g id="_x23_ffffffff">
		<path class="st0" d="M191.4,201.3c2.7,0.6,5.1,1.9,7.6,3.2C196.2,204,193.5,203.2,191.4,201.3z"/>
		<path class="st0" d="M466.6,223c1.1-2.4,2.9-4.2,5.4-5.2C470.3,219.7,468.5,221.5,466.6,223z"/>
		<path class="st0" d="M178.8,252.9c2.6,0,4.8,1.2,6.6,3.1C183.1,255.2,180.9,254.2,178.8,252.9z"/>
		<path class="st0" d="M278.2,252.9c4.2,0.7,8.5,1,12.6,2.2c4.7,1.3,8.9,4,13.1,6.4c-2.2,0-4.6-0.6-6.7,0.3
			c-8.9,3.4-18.3,4.8-27.8,5.4c-9,0.3-18.6,0-26.6-4.6c4.8-3.1,10.2-5.2,15.6-6.8c-0.2,2.7,0,5.6,2.3,7.4c4.5,3.7,11.4,3.9,16.5,1.1
			c2.3-1.2,4.1-3.6,3.9-6.3C281.4,255.8,279.4,254.5,278.2,252.9z"/>
		<path class="st0" d="M378,261.4c7-4.8,15.2-7.4,23.5-8.3c-2.7,1.8-4.5,5.5-2.3,8.4c4.4,5.7,13.5,5.9,19.2,2
			c2.7-1.9,3.2-5.5,2.1-8.4c6.2,1.8,12.6,3.8,18,7.6c-4.6,2.4-9.6,3.8-14.7,4.2c-13.9,1.2-28-0.8-41-5.6
			C381.3,261.2,379.7,261.4,378,261.4z"/>
		<path class="st0" d="M271.5,258.4c0.1-1.7,0.7-3.3,1.7-4.7c0.8,0.5,2.5,1.4,3.3,1.8c-0.3,1-0.6,2.1-1,3.1
			C274.2,259.2,272.8,258.5,271.5,258.4z"/>
		<path class="st0" d="M411.6,255c1.8-0.8,3.9-1.2,4.9,1c0.2,2.8-2.7,3.3-4.8,2.6C411.7,257.4,411.6,256.2,411.6,255z"/>
		<path class="st0" d="M473.6,274.9c1.8-2.7,4.8-4.2,7.4-6C478.9,271.3,476.4,273.4,473.6,274.9z"/>
		<path class="st0" d="M178.7,271c3.1,0.5,5.8,2.2,8.4,3.8C184.2,274,181.2,272.9,178.7,271z"/>
		<path class="st0" d="M458.3,388.5c1,0.1,1.9,0.2,2.9,0.3c0.1,0.4,0.4,1.3,0.5,1.7c-0.9-0.1-1.8-0.3-2.7-0.4
			C458.7,389.7,458.4,388.9,458.3,388.5z"/>
		<path class="st0" d="M456,443.5c1.5,0.7,3,1.2,4.6,1.8c-1.3,0-2.5,0-3.8,0C456.6,444.9,456.2,444,456,443.5z"/>
		<path class="st0" d="M230.3,443.5c1.2,2,1.1,4.4,1.1,6.6C230.8,448,230.4,445.8,230.3,443.5z"/>
		<path class="st0" d="M464.7,492.5c1.9-0.1,3.9,0,5.8,0.4C468.5,493.6,466.5,493.4,464.7,492.5z"/>
		<path class="st0" d="M213.6,531.2c1.2-0.6,2.5-1.2,3.7-1.8c0,0.5,0,1.5,0,2C216.1,531.3,214.8,531.3,213.6,531.2z"/>
		<path class="st0" d="M216.4,541.2c2.9-2.9,2.9,4.4-0.1,1.8C216.3,542.5,216.3,541.6,216.4,541.2z"/>
	</g>
	<g id="_x23_010101ff">
		<path class="st1" d="M202.5,89.5c42.5-27.6,94-41.2,144.6-38.1c53,2.8,104.7,24,144.6,59c26.7,23.1,48.1,52.2,62.4,84.5
			c16.5,37.2,23.3,78.8,19.5,119.3c-4,45.1-21.1,88.9-48.7,124.7c-13.1,17.1-28.5,32.5-45.7,45.5c0.9,6.2,1.9,12.4,2.2,18.7
			c0.7,14.4-1.8,28.7-6.2,42.4c1,0.5,1.9,1.1,2.9,1.6c3.9-4,6.4-11.4,13-11c3.7-0.1,4.2,4.4,4.9,7.1c1.3,8,2.3,16.3,0.4,24.2
			c-1.3,4.6-7.8,5.4-11.2,2.7c-3.4-2-4.7-6.8-9-7.4c0.9,4.3,3.4,8,4,12.4c1,5.6-1.6,11-2.9,16.3c-1.9,7.7-3.9,16-1.2,23.7
			c1,3.5,3.4,6.3,5.7,9c-11.7-3.7-18.7-15.1-21.4-26.4c-1.2-5.7-2.2-11.6-0.7-17.3c1.5-5.2,5.2-9.4,7.6-14.1
			c0.7-1.1,0.2-2.4,0.2-3.6c-3.2,2.8-4.7,7-8.1,9.6c-3.5,2.7-10,1.6-11.1-3.1c-2.5-8.8-3-18.3-1.3-27.3c0.2-3,3.8-4,6.2-2.7
			c4.6,2.3,7.7,7,12.6,9.1c-0.1-1.4-0.1-2.8-0.4-4.2c-3.6-14.2-7.4-28.4-11.3-42.5c-16.3,9-33.4,16.8-51.3,22
			C347.1,540.1,285.7,536,233,511.8c-2.3,10.3-4.4,20.6-6.5,30.9c-0.7,4.3-2.1,8.6-2,13c6.4-2.5,9.6-12,17.6-10.1
			c2.5,6.2,2.4,13,2.6,19.5c-0.4,4.8-0.1,10.3-3.5,14.2c-3.2,2.1-7.6,1.5-10.3-1.1c-2.1-2.1-3.7-4.6-5.5-6.9
			c-0.6,0.1-1.8,0.2-2.3,0.2c2.7,6.8,9.2,11.7,10.2,19.2c1.3,11.8-1.5,24.3-9,33.7c-2.8,3.7-6.8,6.2-11.1,7.9
			c2.6-3.3,5-6.9,5.5-11.2c1.6-11.2-3.5-21.8-6.6-32.2c-1.5-6.2,1.8-12.1,3.2-18c-4.1,0.5-5.1,5.2-8.1,7.4c-2.6,2.6-6.6,3-9.8,1.4
			c-3.4-3.2-3.4-8.3-3.8-12.6c-0.1-6.3,0-12.7,1.6-18.8c0.9-3.7,6-4,8.7-2c3.5,2.6,5.7,6.5,8.9,9.5c0.6-0.7,1.7-2,2.3-2.6
			c-6.9-17-9.8-35.7-8-54c0.4-1.8-1.9-2.2-3-3.1c-38-24-69-58.9-88.4-99.5c-25.8-53.2-30.7-116.1-13.7-172.8
			C117.9,168.8,154.5,120.4,202.5,89.5 M307.4,75.6c-33.6,3.9-66.1,15.9-94.2,34.6c-48.1,31.5-82.8,82.6-93.9,139.1
			c-7.3,36.2-5.3,74.3,6.1,109.5c14.7,46,45.2,86.9,85.3,113.8c1.9-12.6,3-25.3,2-38c-1.4-14.9-5.4-29.4-9.4-43.8
			c-0.4-1.4-0.8-3-2.2-3.8c-4.7-3.2-9-7.3-11.1-12.7c-3.7-9.3-1.9-19.5-1.1-29.1c-4.4-15.6-9.1-31.2-11.9-47.2
			c-5.1-28.5-3.9-58.6,6.1-85.9c8.2-23.1,22.4-43.9,40-61c2.9,0.3,5.5,2.2,8.2,3.1c-2.3-1.6-4.7-3-7.4-3.8
			c7.7-7.4,16.1-14.1,24.8-20.3c1.4,0.7,2.8,1.4,4.2,2.1c-1-1-2-2-3-3c9.4-6.4,19.3-12,29.4-17c1.2,0.7,2.4,1.4,3.7,2.1
			c-0.7-1-1.4-1.9-2.1-2.8c5.3-2.4,10.7-4.7,16.2-6.8c2.2,1.3,4.4,2.5,6.7,3.8c-0.4-0.3-0.8-0.5-1.1-0.8c-1.5-1.1-3.1-2.2-4.6-3.3
			c4.2-1.5,8.5-3.3,12.9-4.2c3,0.2,5.8,1.7,8.8,2.2c-2.2-1-4.5-1.8-6.7-2.8c12.8-4.2,26.7-4.3,39.7-1.5c15.2,3.2,30,8.5,44.1,15
			c24.5,11.6,47.1,27.6,64.9,48.1c13,15,23.2,32.4,29.5,51.2c7.7,22,9.6,45.6,7.8,68.8c-1.6,17.7-5.2,35.1-9.5,52.3
			c-1,3.2,0.4,6.4,0.8,9.6c1.3,8.1,1.9,17-1.7,24.6c-2.3,4.8-6.6,8.2-10.4,11.8c-1.7,5.3-2.6,10.9-3.8,16.4c-2.1,10.9-4.1,22-4,33.1
			c-0.2,10,1.3,20,3.2,29.9c15.7-13,29.4-28.5,40.7-45.4c24.3-35.9,37.3-79.2,36.9-122.5c-0.1-43.1-13.5-85.9-37.9-121.4
			c-26.2-38.4-64.9-68.3-108.9-83.4C373.6,75.3,340.1,71.7,307.4,75.6 M325.8,108.8c-29.7,7.7-57.8,22.7-79.2,44.7
			c-15.9,16.1-27.7,36.2-34.3,57.8c-7,24.5-5.2,50.5-0.9,75.2c1.2,5.7,1.2,11.8,3.9,17.1c3.5,7.7,3.9,16.4,3.2,24.8
			c0.4,8.3,1,16.7,2.3,24.9c1.6,13.9,6,27.3,7.8,41.2c1.6,10.2,4.7,20.4,10.9,28.8c6.5,9,16.7,15.1,27.4,17.6c2.5-1.6,3.7-4.5,5-7.1
			c4.2-8.7,4.4-18.6,3.1-28c-2-12.9-6.1-25.3-10.4-37.5c-1.6-4.4-3.3-9.1-2.3-13.9c1.1-6.5,5.1-12,9.6-16.5
			c9.5-9.5,21.4-15.9,33.2-22c-4.6-2.9-9.6-5.6-13-10.1c-2.4-3.3-2.7-7.6-3-11.5c8.5-2.8,17.3-4.7,25.3-8.6c1.4-1.8,2-4.1,3.1-6
			c2.1-4.1,5.4-7.3,9.2-9.9c-4.8,4.7-9.1,10.1-10.3,16.9c-7.5,4.1-15.7,7.1-23.8,9.8c0.4,4.6,3.3,8.3,7.1,10.6
			c10.7,7.2,23.7,9,35.5,13.5c2.8,0.9,5.7,2.8,8.6,1.4c9.4-3.6,18.7-7.4,28.2-10.9c6.6-2.6,13.8-6.9,14.8-14.6
			c-7.3-2.7-14.8-5.2-21.8-8.8c-2.6-1-2.7-4-3.7-6.2c-1.7-4.8-5.3-8.6-9.1-11.9c6.1,3.3,9.7,9.5,12.3,15.6c8.1,4.4,17.4,6,26,9.1
			c-0.7,3.7-0.7,7.9-3.1,11c-2.3,3.3-5.6,5.7-8.9,8c17.3,7,27.8,24,34.3,40.6c2.4,5.8,1.8,12.2,1.2,18.3
			c-1.9,15.5-5.8,30.9-4.7,46.6c0.4,7.5,2.4,14.9,5.2,21.8c7.8-1.8,15-5.7,21-11.1c10.4-9.4,15-23.4,16.9-36.9
			c1.5-11.3,3.4-22.5,4.5-33.8c0-10.4,1.7-20.6,1.5-31c0.8-7.8-1.7-15.5-0.3-23.2c0.1-5.7,3.8-10.4,4-16.1
			c0.6-7.9,1.8-15.8,2.2-23.7c2.1-25-0.4-51.2-11.7-73.9c-8.7-18.5-21.6-34.8-37.2-48c2.5-2.5,4.9-5.2,7.4-7.6
			c-3.3,1.6-6.6,3.4-8.5,6.8c-22.7-18.3-50.3-30.1-79-34.8C332.3,107.1,329,108.1,325.8,108.8 M191.4,201.3c2.1,1.8,4.9,2.7,7.6,3.2
			C196.5,203.2,194,202,191.4,201.3 M466.6,223c2-1.5,3.7-3.3,5.4-5.2C469.5,218.8,467.6,220.6,466.6,223 M178.8,252.9
			c2.1,1.2,4.3,2.3,6.6,3.1C183.7,254.1,181.4,252.9,178.8,252.9 M473.6,274.9c2.8-1.5,5.3-3.6,7.4-6
			C478.4,270.7,475.5,272.2,473.6,274.9 M178.7,271c2.5,1.9,5.5,2.9,8.4,3.8C184.5,273.2,181.8,271.6,178.7,271 M477.7,280.7
			c-10.1,6-17,17.5-16.6,29.4c2-3.5,4.1-7.1,6.9-10.1c5.4-6,12.3-10.4,18.3-15.8c1.5-1.1,2.4-4.1,0.2-5
			C483.7,277.5,480.4,279.5,477.7,280.7 M186.7,289.4c0.6,1.6,1,3.3,2.5,4.3c5.7,4.4,11.8,8.1,17.2,12.9c3.3,3,5.8,6.6,8.8,10
			c-0.2-9.7-6-18.4-13.4-24.3C197.5,289.2,191.7,285.7,186.7,289.4 M466,321c-5.6,16-6.3,33.2-5.3,50c2,5.4,9.1,9.1,14.5,6.2
			c7.8-4,13.1-12.3,13.2-21.1c0.4-19-8.8-36.5-10-55.3C472.5,306.3,468.6,313.5,466,321 M197.8,309.3c0.1,17.5-7.1,34.2-7.1,51.7
			c0.1,6.2,1.4,12.8,5.6,17.6c3.6,4.2,8.7,8.4,14.6,7.7c3.6-1,6.7-3.5,8.4-6.8c0.6-9.1-0.6-18.3-1.8-27.4
			C215.1,336.5,209.9,320.2,197.8,309.3 M301.9,337.7c-5.7,1-11.3,3.6-15,8.2c-5.6,6.6-6.5,15.8-5.9,24.1
			c1.6,16.8,3.5,33.6,5.3,50.5c9.5-0.2,19.8-1.4,27.4-7.7c7.7-6.3,9.8-17.4,7.4-26.7c-1.4-4.4-2.8-9.7-7.1-12.1
			c-9.7-3.4-20.1-5.4-30.4-4.4c9.1-2.5,18.7-0.7,27.8,1.1c3.9,1.3,7.5-1.5,11.4-1.9c13.1-2,26.8-1.2,39.5,2.7c10.9-1.5,22-5,33-2
			c-11.1-1-22.2,1.4-32.5,5.2c-9,8.9-9.7,25-0.7,34.2c9.4,9.6,23.2,12.6,36,14.3c1.7-17.4,3.4-34.8,3.3-52.3c0.2-7.2,0-15-4.3-21.1
			c-3.8-6.3-10.9-9.6-17.9-11.1c-15.7-3.5-31.8,0.2-47.7-1C321.7,337,311.6,335.9,301.9,337.7 M458.3,388.5c0.2,0.4,0.5,1.2,0.6,1.6
			c0.9,0.1,1.8,0.3,2.7,0.4c-0.1-0.4-0.4-1.3-0.5-1.7C460.2,388.7,459.2,388.6,458.3,388.5 M455.5,407.2c1.7,2.4,4.7,2.5,7.3,3.1
			C460.7,408.7,458.4,407,455.5,407.2 M216.3,417.9C216.5,421.2,219.3,416.3,216.3,417.9 M232.9,424.8c3.4,13.7,8.5,26.9,13,40.1
			c-3.4,7.6-5.6,15.7-7.5,23.8c30.8,14.9,65.3,22.4,99.5,21.6c38.3-0.7,76.3-11.9,108.9-31.9c-2.1-6.7-4.6-13.3-7.7-19.6
			c3-11.4,7-22.6,9.1-34.2c-6.7,9.9-16.5,17.5-27.9,21c-4.2,1.7-9,1.6-12.9,4c-14.3,8.9-29.4,16.7-45.5,21.5
			c-13.5,4-27.9,3-41.5,0.4c-16.5-3.5-32.8-9.4-46.9-18.9c-3.5-2.3-6.4-5.7-10.8-6.3C250.6,443,240.1,435,232.9,424.8 M456,443.5
			c0.2,0.4,0.6,1.3,0.8,1.8c1.3,0,2.5,0,3.8,0C459,444.8,457.5,444.2,456,443.5 M230.3,443.5c0,2.2,0.4,4.5,1.1,6.6
			C231.4,447.9,231.5,445.6,230.3,443.5 M464.7,492.5c1.8,0.9,3.8,1.1,5.8,0.4C468.5,492.5,466.6,492.4,464.7,492.5 M211.3,502
			C211.5,505.3,214.3,500.3,211.3,502 M213.2,516c-2,0.8,0,3.2,1.5,2.1C216.6,517.2,214.7,514.8,213.2,516 M467.2,521.3
			c-1.2,1.4,1.4,3.1,2.4,1.6C470.7,521.5,468.2,519.8,467.2,521.3 M213.6,531.2c1.2,0.1,2.5,0.1,3.7,0.2c0-0.5,0-1.5,0-2
			C216.1,530,214.8,530.6,213.6,531.2 M468.1,532.2c-1.8,0.3-1.1,3.2,0.7,2.7C470.6,534.5,469.8,531.6,468.1,532.2 M478.5,550.8
			c0.6,0,1.8,0.1,2.4,0.2c-0.2,1.4-0.5,2.8-0.7,4.1c0.8,0.7,1.5,1.4,2.3,2.1c-1.1,0.5-2.3,1.1-3.4,1.6c2.2,3.1,4.4,6.4,7.6,8.7
			c1.7,1.5,4.1,0.6,6.2,0.6c2.6-9.6,1.9-20-1.6-29.3C485.1,540.5,483,547,478.5,550.8 M216.4,541.2c0,0.4-0.1,1.3-0.1,1.8
			C219.2,545.6,219.3,538.3,216.4,541.2 M449.8,541.8c-0.7,9.4-1.5,19.1,1.7,28.1c2,0.3,4.2,0.9,5.9-0.4c3.4-2.4,4.7-6.5,6.1-10.2
			c-2,0.3-4,0.6-5.9,1c1.8-1.7,3.6-3.4,5.3-5.1c-2.2-2.5-6.4-4.6-5.4-8.5C455.5,544.4,452.8,542.8,449.8,541.8 M199,547.6
			c-3.6,7.2-2.3,15.5-2.4,23.3c0.2,3,2,6.3,5.4,6.5c5.1-1.4,7.3-6.7,10.1-10.7c-1.4-0.2-2.7-0.3-4.1-0.5c0.9-1.1,1.9-2.1,2.9-3.1
			c-0.7-0.8-1.3-1.5-2-2.3c1-0.4,1.9-0.9,2.9-1.3C207.8,555.2,204.5,550,199,547.6 M467.3,549.6c-0.9,3.4-0.2,6.7,0.6,10
			c2.6-0.1,5.2-0.1,7.8,0c0.1-3.9-0.3-7.8-1.7-11.4C471.8,548.7,469.5,549.2,467.3,549.6 M226.8,559.1c1,0.3,2,0.7,3,1
			c-0.6,1-1.1,2-1.7,3c0.7,0.7,1.3,1.4,2,2.1c-1.3,0.6-2.6,1.3-4,2c3.3,3.6,5.4,9.4,10.8,10.2c3.9-0.5,4.2-5.2,4.5-8.3
			c0.1-7,0.9-14.4-2.1-21C234.8,551.3,230.8,555.3,226.8,559.1 M216.4,556c-1,3.9-1.1,8-1,12.1c1.2-0.5,2.4-1.1,3.6-1.6
			c1.3,0.5,2.7,1,4,1.5c0.6-3.6,0.7-7.2,0.5-10.7c-1.4,0.1-2.7,0.3-4.1,0.5C218.4,557.2,217.4,556.6,216.4,556z"/>
		<path class="st1" d="M241.8,210.8c10.8-8.1,25.1-9.2,38.1-8.3c7.4,0.6,14.6,2,21.7,4.1c-0.7,4.7-1.5,9.5-2.4,14.2
			c9.9,4.6,18.5,12.4,22.2,22.8c1.9,5.4,3,11.5,1,17c-2.9,4.8-9.3,5.1-14.3,5.8c-5.2,11.8-19.4,15.6-31.3,15.1
			c7.6-1.6,15.4-3.9,21.1-9.4c2.3-2,3.5-4.8,4.4-7.6c-1.7,0.2-3.4,0.3-5.1,0.9c-13,4.2-26.8,6.1-40.4,4.8c-6-0.8-12.5-1.9-17-6.2
			c1.9-6.4,1-13.6,4.5-19.5c3.7-7,10.7-11.7,18.3-13.5c9.2-2.1,19.2-2.3,28.1,1.3c7.7,3,14,9.5,16.5,17.4c1.2,3.6,0.8,7.5,0.7,11.2
			c3.6-0.3,7.1-0.9,10.5-2.1c1.9-9.2-0.8-19.1-6.9-26.3c-6.3-7.5-15.1-13.5-25-14.8c-4.2-0.7-8.6-0.4-12.8-1.6
			c-16.3-4.2-34.4,2.2-45,15.1C231.3,223.4,235.1,215.6,241.8,210.8 M250.5,240.5c-5.3,4.5-7.9,11.6-8.2,18.4
			c15.1-7.8,33-11.4,49.6-6.7c5.7,1.5,10.7,4.7,15.5,8c0.2-4.4-0.5-8.9-2.8-12.8c-5.2-9.5-16.1-14.7-26.6-14.9
			C268.4,232.2,257.9,233.8,250.5,240.5 M278.2,252.9c1.2,1.6,3.2,2.9,3.1,5.1c0.2,2.6-1.6,5.1-3.9,6.3c-5.1,2.8-12,2.6-16.5-1.1
			c-2.3-1.8-2.5-4.7-2.3-7.4c-5.4,1.7-10.8,3.7-15.6,6.8c8,4.6,17.6,4.9,26.6,4.6c9.4-0.5,18.9-2,27.8-5.4c2.1-0.9,4.5-0.3,6.7-0.3
			c-4.2-2.4-8.4-5-13.1-6.4C286.7,253.9,282.4,253.6,278.2,252.9 M271.5,258.4c1.3,0.1,2.7,0.8,4,0.2c0.4-1,0.7-2.1,1-3.1
			c-0.8-0.5-2.5-1.4-3.3-1.8C272.2,255.1,271.5,256.7,271.5,258.4z"/>
		<path class="st1" d="M373.4,206.6c16.8-4.8,35.6-6.9,52.3-0.3c10.5,4.1,17.8,13.9,20.3,24.7c-10.4-12.8-28.3-19.2-44.4-15.2
			c-4.1,1.2-8.5,1-12.7,1.3c-4.7,0.3-9.1,1.8-13.6,3C374.6,215.6,374,211.1,373.4,206.6z"/>
		<path class="st1" d="M364.5,239.4c5.3-9.9,15-17.2,25.5-20.7c-8,4.8-16.4,10-20.9,18.5c-3.7,6.3-5,14-3.4,21.1
			c2.3,1.4,5.1,1.6,7.7,2.2c-0.5-6,0.1-12.4,3.7-17.4c7.1-11.1,21.4-15.1,33.9-13.6c9.9,0.6,20.3,5,25.5,13.8c4,6,2.8,13.6,5,20.2
			c-3.1,3.9-8.3,4.8-12.9,5.8c-13.4,2.1-27.2,0.7-40.2-3c-3-0.7-5.9-2.8-9.1-1.7c1,5.4,5.8,8.9,10.3,11.6c4.5,2.7,9.6,3.6,14.6,4.9
			c-11.7,0.6-25.8-3.4-30.7-15.1c-4.3-1.3-10.1-1.8-12.1-6.5C359.5,252.9,361.5,245.6,364.5,239.4 M383.6,239.6
			c-6.3,4.8-9.6,12.7-9.8,20.5c5.4-2.8,10.4-6.5,16.4-8c16.5-4.6,34.2-0.7,49.2,6.7c-0.6-6.9-3.2-14-8.5-18.6
			c-6.4-5.3-14.7-7.5-22.9-7.7C399.4,232,390.4,234.1,383.6,239.6 M378,261.4c1.6,0,3.2-0.2,4.9-0.1c13,4.8,27.1,6.8,41,5.6
			c5.1-0.4,10.2-1.8,14.7-4.2c-5.4-3.8-11.8-5.7-18-7.6c1.1,3,0.6,6.5-2.1,8.4c-5.7,3.9-14.8,3.7-19.2-2c-2.2-2.9-0.4-6.6,2.3-8.4
			C393.2,254,385,256.6,378,261.4 M411.6,255c0,1.2,0.1,2.3,0.1,3.5c2.1,0.8,4.9,0.2,4.8-2.6C415.5,253.8,413.4,254.2,411.6,255z"/>
		<path class="st1" d="M447,275c6.6,7.8,10.1,17.9,10.2,28c-0.1,8.1-3.1,16.4-9.3,21.8c-3.6,3.4-8.3,5.4-13,7
			c7.2-4.7,14.6-10.2,17.4-18.7C456.5,300.4,452.5,286.8,447,275z"/>
		<path class="st1" d="M220,313.1c-3.9-12.8-0.3-27.3,8.1-37.5c-5.3,11.9-9.5,25.9-4.5,38.6c2.8,7.5,9.3,12.4,15.6,16.9
			C230.4,328.7,222.8,322,220,313.1z"/>
		<path class="st1" d="M307.4,303.9c6.9-4.2,15.1-7.2,23.3-5.8c1.4,4.6,2.4,9.4,2.8,14.2C324.5,310.3,315.6,308,307.4,303.9z"/>
		<path class="st1" d="M352.1,297.8c8.1-0.8,16.2,1.9,23.1,6c-8.2,4-17.1,6.6-26,8.5C349.5,307.4,350.5,302.5,352.1,297.8z"/>
		<path class="st1" d="M476.6,343.6c3.5-2.5,4.8-6.8,6.6-10.6c2.1,4.2,2.3,9.6-0.8,13.4c-4.7,5.6-13.3,6.2-19.4,2.7
			C467.5,347.3,472.6,346.5,476.6,343.6z"/>
		<path class="st1" d="M196.2,339.6c2.2,3.7,3.4,8.4,7.4,10.7c4.3,2.5,9.3,3,13.9,4.6c-3.6,2-7.8,3.4-12,2.5
			c-5-0.6-9.5-4.6-10.3-9.6C194.7,345,195.6,342.3,196.2,339.6z"/>
		<path class="st1" d="M292.3,359.1c12.9-7.6,28.6-10.2,43.4-7.8c6.1,1.1,12.2-0.1,18.3,0.4c9.2,0.5,18.5,1.7,27,5.4
			c3,1.3,5.6,3.4,7.6,6c-12.9-6.3-27.6-6-41.6-5.5c-8.8,1.1-17.3-1.9-26-1.8C311.3,355.3,301.8,357.6,292.3,359.1z"/>
	</g>
	<g id="_x23_c79c6fff">
		<path class="st2" d="M325.8,108.8c3.2-0.8,6.5-1.8,9.9-1.3c28.7,4.6,56.3,16.5,79,34.8c1.9-3.3,5.2-5.1,8.5-6.8
			c-2.5,2.5-4.9,5.1-7.4,7.6c15.5,13.2,28.5,29.5,37.2,48c11.3,22.7,13.8,48.9,11.7,73.9c-0.4,7.9-1.6,15.8-2.2,23.7
			c-0.2,5.6-3.9,10.4-4,16.1c-1.5,7.7,1,15.4,0.3,23.2c0.2,10.4-1.5,20.6-1.5,31c-1.2,11.3-3.1,22.5-4.5,33.8
			c-1.9,13.5-6.5,27.5-16.9,36.9c-5.9,5.4-13.1,9.3-21,11.1c-2.8-7-4.8-14.3-5.2-21.8c-1.1-15.7,2.7-31.1,4.7-46.6
			c0.6-6.1,1.2-12.5-1.2-18.3c-6.5-16.7-17-33.6-34.3-40.6c3.3-2.3,6.6-4.7,8.9-8c2.4-3.2,2.4-7.3,3.1-11c-8.6-3.1-17.9-4.7-26-9.1
			c-2.7-6.2-6.2-12.3-12.3-15.6c3.8,3.3,7.4,7.1,9.1,11.9c1,2.2,1.2,5.2,3.7,6.2c7,3.6,14.4,6.1,21.8,8.8c-1,7.7-8.3,12-14.8,14.6
			c-9.4,3.5-18.8,7.2-28.2,10.9c-2.9,1.5-5.9-0.5-8.6-1.4c-11.8-4.5-24.9-6.4-35.5-13.5c-3.8-2.3-6.8-6-7.1-10.6
			c8.1-2.8,16.2-5.7,23.8-9.8c1.2-6.8,5.5-12.2,10.3-16.9c-3.8,2.6-7.1,5.8-9.2,9.9c-1.2,1.9-1.7,4.2-3.1,6
			c-8.1,3.9-16.9,5.9-25.3,8.6c0.3,4,0.6,8.2,3,11.5c3.3,4.5,8.3,7.2,13,10.1c-11.8,6.1-23.7,12.5-33.2,22
			c-4.5,4.6-8.6,10.1-9.6,16.5c-1,4.8,0.7,9.5,2.3,13.9c4.3,12.3,8.5,24.7,10.4,37.5c1.3,9.4,1.1,19.3-3.1,28
			c-1.3,2.6-2.5,5.5-5,7.1c-10.7-2.5-20.9-8.5-27.4-17.6c-6.2-8.4-9.4-18.6-10.9-28.8c-1.8-13.9-6.1-27.3-7.8-41.2
			c-1.3-8.2-1.9-16.6-2.3-24.9c0.6-8.3,0.3-17-3.2-24.8c-2.7-5.3-2.7-11.4-3.9-17.1c-4.3-24.8-6.1-50.8,0.9-75.2
			c6.6-21.6,18.4-41.7,34.3-57.8C268,131.5,296.1,116.5,325.8,108.8 M241.8,210.8c-6.7,4.8-10.4,12.6-12.8,20.3
			c10.6-12.9,28.8-19.2,45-15.1c4.2,1.1,8.5,0.9,12.8,1.6c9.9,1.4,18.6,7.4,25,14.8c6.1,7.2,8.7,17.1,6.9,26.3
			c-3.4,1.2-6.9,1.8-10.5,2.1c0.1-3.7,0.4-7.6-0.7-11.2c-2.5-7.9-8.8-14.4-16.5-17.4c-8.9-3.6-18.8-3.4-28.1-1.3
			c-7.6,1.8-14.6,6.5-18.3,13.5c-3.5,5.9-2.6,13.1-4.5,19.5c4.5,4.3,11,5.4,17,6.2c13.6,1.3,27.4-0.6,40.4-4.8
			c1.6-0.5,3.4-0.7,5.1-0.9c-0.9,2.8-2.1,5.7-4.4,7.6c-5.7,5.6-13.6,7.8-21.1,9.4c11.9,0.5,26.1-3.3,31.3-15.1
			c5-0.7,11.3-1,14.3-5.8c1.9-5.5,0.8-11.6-1-17c-3.7-10.4-12.3-18.3-22.2-22.8c0.9-4.7,1.7-9.4,2.4-14.2
			c-7.1-2.1-14.4-3.4-21.7-4.1C266.8,201.6,252.6,202.6,241.8,210.8 M373.4,206.6c0.5,4.5,1.1,9,1.9,13.5c4.5-1.2,8.9-2.6,13.6-3
			c4.2-0.3,8.6-0.1,12.7-1.3c16.1-4,34,2.4,44.4,15.2c-2.5-10.8-9.8-20.6-20.3-24.7C409,199.7,390.3,201.8,373.4,206.6 M364.5,239.4
			c-3,6.2-5,13.5-3.2,20.3c2,4.7,7.8,5.2,12.1,6.5c4.9,11.7,19.1,15.7,30.7,15.1c-5-1.2-10.1-2.2-14.6-4.9
			c-4.5-2.6-9.2-6.2-10.3-11.6c3.1-1.1,6.1,1,9.1,1.7c13,3.6,26.8,5,40.2,3c4.6-1,9.9-1.9,12.9-5.8c-2.2-6.6-1-14.2-5-20.2
			c-5.2-8.9-15.6-13.2-25.5-13.8c-12.5-1.5-26.8,2.5-33.9,13.6c-3.7,5-4.2,11.4-3.7,17.4c-2.6-0.6-5.4-0.8-7.7-2.2
			c-1.6-7.1-0.3-14.8,3.4-21.1c4.5-8.5,12.9-13.7,20.9-18.5C379.4,222.3,369.8,229.5,364.5,239.4 M447,275
			c5.5,11.7,9.5,25.4,5.3,38.2c-2.7,8.5-10.2,14-17.4,18.7c4.6-1.6,9.3-3.6,13-7c6.2-5.5,9.2-13.7,9.3-21.8
			C457.1,292.9,453.6,282.8,447,275 M220,313.1c2.7,8.9,10.4,15.6,19.2,18.1c-6.2-4.5-12.8-9.4-15.6-16.9c-5-12.8-0.8-26.7,4.5-38.6
			C219.7,285.8,216.1,300.4,220,313.1 M307.4,303.9c8.2,4.1,17.1,6.4,26,8.5c-0.4-4.8-1.4-9.6-2.8-14.2
			C322.5,296.7,314.3,299.7,307.4,303.9 M352.1,297.8c-1.6,4.7-2.5,9.6-2.9,14.5c8.9-1.9,17.8-4.4,26-8.5
			C368.2,299.7,360.2,297,352.1,297.8z"/>
		<path class="st2" d="M250.5,240.5c7.4-6.7,17.9-8.3,27.5-8c10.5,0.3,21.4,5.4,26.6,14.9c2.3,3.9,2.9,8.4,2.8,12.8
			c-4.8-3.3-9.8-6.5-15.5-8c-16.6-4.7-34.5-1.1-49.6,6.7C242.6,252.1,245.1,245,250.5,240.5z"/>
		<path class="st2" d="M383.6,239.6c6.8-5.5,15.8-7.5,24.4-7.1c8.1,0.2,16.5,2.4,22.9,7.7c5.4,4.6,8,11.7,8.5,18.6
			c-15.1-7.4-32.7-11.3-49.2-6.7c-6,1.4-11,5.1-16.4,8C374,252.2,377.2,244.4,383.6,239.6z"/>
		<path class="st2" d="M477.7,280.7c2.6-1.3,6-3.3,8.8-1.4c2.2,0.9,1.2,3.8-0.2,5c-6,5.3-12.9,9.7-18.3,15.8
			c-2.9,3-4.9,6.6-6.9,10.1C460.7,298.2,467.6,286.8,477.7,280.7z"/>
		<path class="st2" d="M186.7,289.4c5-3.6,10.8-0.2,15.1,2.9c7.5,5.8,13.3,14.5,13.4,24.3c-2.9-3.3-5.4-7-8.8-10
			c-5.4-4.7-11.5-8.5-17.2-12.9C187.8,292.7,187.3,290.9,186.7,289.4z"/>
		<path class="st2" d="M466,321c2.6-7.5,6.5-14.7,12.3-20.3c1.2,18.8,10.4,36.3,10,55.3c-0.1,8.8-5.4,17.1-13.2,21.1
			c-5.4,2.9-12.5-0.8-14.5-6.2C459.7,354.2,460.4,337,466,321 M476.6,343.6c-4,2.9-9.1,3.7-13.6,5.5c6.1,3.5,14.8,2.9,19.4-2.7
			c3.1-3.8,2.8-9.2,0.8-13.4C481.4,336.8,480.1,341.1,476.6,343.6z"/>
		<path class="st2" d="M197.8,309.3c12.1,10.9,17.3,27.2,19.7,42.8c1.2,9.1,2.4,18.2,1.8,27.4c-1.7,3.3-4.8,5.8-8.4,6.8
			c-5.9,0.7-11-3.5-14.6-7.7c-4.3-4.8-5.5-11.4-5.6-17.6C190.7,343.5,197.9,326.8,197.8,309.3 M196.2,339.6c-0.7,2.6-1.6,5.4-1,8.1
			c0.9,5,5.3,9,10.3,9.6c4.1,1,8.3-0.5,12-2.5c-4.6-1.6-9.7-2.1-13.9-4.6C199.7,348,198.4,343.4,196.2,339.6z"/>
		<path class="st2" d="M301.9,337.7c9.8-1.9,19.8-0.8,29.7,0c15.9,1.2,32-2.5,47.7,1c7,1.5,14,4.9,17.9,11.1
			c4.3,6.1,4.4,13.9,4.3,21.1c0.1,17.5-1.6,34.9-3.3,52.3c-12.8-1.8-26.6-4.8-36-14.3c-9-9.2-8.2-25.3,0.7-34.2
			c10.3-3.9,21.5-6.2,32.5-5.2c-11-3-22.2,0.5-33,2c-12.7-3.9-26.4-4.7-39.5-2.7c-3.8,0.4-7.4,3.2-11.4,1.9
			c-9.1-1.9-18.7-3.7-27.8-1.1c10.3-1.1,20.7,0.9,30.4,4.4c4.3,2.4,5.7,7.7,7.1,12.1c2.4,9.3,0.3,20.4-7.4,26.7
			c-7.6,6.3-17.9,7.6-27.4,7.7c-1.8-16.8-3.7-33.6-5.3-50.5c-0.5-8.3,0.3-17.6,5.9-24.1C290.6,341.4,296.2,338.8,301.9,337.7
			 M292.3,359.1c9.5-1.4,19-3.7,28.7-3.4c8.7-0.1,17.3,2.9,26,1.8c14-0.5,28.7-0.8,41.6,5.5c-2-2.6-4.6-4.7-7.6-6
			c-8.5-3.8-17.8-5-27-5.4c-6.1-0.4-12.2,0.7-18.3-0.4C320.9,348.8,305.2,351.4,292.3,359.1z"/>
		<path class="st2" d="M455.5,407.2c2.9-0.1,5.1,1.5,7.3,3.1C460.2,409.7,457.2,409.6,455.5,407.2z"/>
		<path class="st2" d="M216.3,417.9C219.3,416.3,216.5,421.2,216.3,417.9z"/>
		<path class="st2" d="M211.3,502C214.3,500.3,211.5,505.3,211.3,502z"/>
		<path class="st2" d="M213.2,516c1.4-1.2,3.4,1.2,1.5,2.1C213.3,519.2,211.3,516.8,213.2,516z"/>
		<path class="st2" d="M467.2,521.3c1-1.5,3.5,0.2,2.4,1.6C468.5,524.4,466,522.7,467.2,521.3z"/>
		<path class="st2" d="M468.1,532.2c1.8-0.6,2.5,2.3,0.7,2.7C467,535.5,466.2,532.5,468.1,532.2z"/>
	</g>
	<g id="_x23_e80f13ff">
		<path class="st3" d="M478.5,550.8c4.5-3.8,6.6-10.2,12.7-12c3.5,9.2,4.2,19.7,1.6,29.3c-2.1,0-4.5,0.9-6.2-0.6
			c-3.1-2.3-5.3-5.5-7.6-8.7c1.1-0.5,2.3-1.1,3.4-1.6c-0.8-0.7-1.5-1.4-2.3-2.1c0.2-1.4,0.4-2.8,0.7-4.1
			C480.2,550.9,479,550.8,478.5,550.8z"/>
		<path class="st3" d="M449.8,541.8c2.9,1,5.6,2.6,7.8,4.9c-0.9,4,3.3,6,5.4,8.5c-1.7,1.8-3.5,3.5-5.3,5.1c2-0.4,3.9-0.8,5.9-1
			c-1.5,3.7-2.8,7.8-6.1,10.2c-1.8,1.3-4,0.7-5.9,0.4C448.3,560.9,449.1,551.2,449.8,541.8z"/>
		<path class="st3" d="M199,547.6c5.5,2.4,8.8,7.6,12.7,11.8c-1,0.4-1.9,0.9-2.9,1.3c0.7,0.8,1.3,1.5,2,2.3c-1,1-1.9,2-2.9,3.1
			c1.4,0.2,2.7,0.3,4.1,0.5c-2.8,4-5,9.3-10.1,10.7c-3.3-0.2-5.2-3.5-5.4-6.5C196.7,563.1,195.4,554.8,199,547.6z"/>
		<path class="st3" d="M467.3,549.6c2.2-0.4,4.4-0.9,6.6-1.3c1.4,3.6,1.8,7.5,1.7,11.4c-2.6-0.1-5.2-0.1-7.8,0
			C467.1,556.3,466.5,553,467.3,549.6z"/>
		<path class="st3" d="M226.8,559.1c4-3.8,8-7.8,12.6-11c3,6.6,2.2,14,2.1,21c-0.3,3.1-0.6,7.8-4.5,8.3c-5.4-0.8-7.5-6.6-10.8-10.2
			c1.3-0.7,2.6-1.3,4-2c-0.7-0.7-1.3-1.4-2-2.1c0.6-1,1.1-2,1.7-3C228.8,559.8,227.8,559.4,226.8,559.1z"/>
		<path class="st3" d="M216.4,556c1,0.6,2,1.1,3,1.7c1.4-0.2,2.7-0.3,4.1-0.5c0.2,3.6,0.1,7.2-0.5,10.7c-1.4-0.5-2.7-1-4-1.5
			c-1.2,0.5-2.4,1.1-3.6,1.6C215.3,564,215.5,560,216.4,556z"/>
	</g>
</g>
</svg>
