<svg id="Слой_1" data-name="Слой 1" xmlns="http://www.w3.org/2000/svg" viewBox="0 0 196.94 275.64"><defs><style>.cls-1{fill:#3d471d;stroke-width:3px;}.cls-1,.cls-2{stroke:#1d1d1b;}.cls-1,.cls-2,.cls-3,.cls-4,.cls-5{stroke-miterlimit:10;}.cls-2,.cls-4{fill:#61c2e4;}.cls-3{fill:#d6cda0;stroke:#d6cda0;}.cls-4{stroke:#61c2e5;}.cls-5{fill:#a3781a;stroke:#a3781a;}</style></defs><path d="M87.32,2.73c.32,7.86-1.34,14.38-5.41,20a38.42,38.42,0,0,1-8.35,8.44c-4.07,3-8.64,5.31-13.07,7.8-3,1.68-5.6,1-7.18-2.12-1-1.94-2.09-2.51-2.75-3.36-1.24-1.58-4.25-3.12-12.19-2.64l5,3.78c-.15,3-.22,5.6-.25,7.71-.06,3.58-.07,4.73.81,5.43,1.28,1,3.95.89,5.78.39a22.25,22.25,0,0,0,6.64-3.28C66.72,37.75,78.26,34,90.68,32.41a13.4,13.4,0,0,0,5.07-2.08c4.65-2.82,9.51-3.23,13.55.37,3.46,3.07,7.46,3.25,13.59,4.29,10.78,1.82,12.69-1.29,17.22,1.69,1,.65,3,2.75,7,7,3.83,4,5.25,5.87,6,5.52,1.34-.64-3.23-7.49-.48-12.72a9.3,9.3,0,0,1,9.47-4.64c4.7.95,8.52,6.87,7.09,13.76-.26-15.32-3.75-20.1-7.08-21.48-4.56-1.9-8.8,2.5-18,4a38.1,38.1,0,0,1-20.89-3,44.69,44.69,0,0,1-4.29-10.17A36.08,36.08,0,0,1,117.44,3.5c1.49,1.13,2.59,2,3.75,2.84,8,5.57,16.76,6.61,26,4.07a47.84,47.84,0,0,1,27.94.35,36.55,36.55,0,0,1,21.75,18.06c7.11,14,2.07,27.64,1,30.47A41.88,41.88,0,0,1,179.11,81a24.78,24.78,0,0,1,11.76,6.12A24.52,24.52,0,0,1,197,96.2a20.72,20.72,0,0,0-8.16,4.2c-3.4,2.9-2.74,4.42-5.52,6.84-5.54,4.82-11.9,2.06-14.28,6.24-.35.61-.61,1.37-.24,6.12.53,6.81.8,10.21,1.92,13.44,2.4,6.91,5.64,6,10.8,15.06a42.64,42.64,0,0,1,4.93,12.21,40.24,40.24,0,0,1,.11,17.31c-1,4.35-1.89,4.59-7.74,18.18-1.91,4.43-2.42,5.82-3.57,8.53a206,206,0,0,1-13.05,25.79C155.05,241.6,147,248.41,131,262c-12.3,10.45-18.59,15.68-25.13,16.24-9.15.78-16-4-28.87-12.88-10.77-7.47-17.06-14.24-28.56-26.64C34.69,223.94,32.8,218.94,32,216.11c-2-6.45-1.05-9.84-4.4-17.19-3.75-8.24-6.95-8.54-9.84-14.88-5-10.91-1.26-22.68-.24-25.92,4.12-13.08,11.25-13,15.84-27.36,2.95-9.24,3.18-19.21,0-20.64-2.35-1.06-4.82,3.32-8.88,2.4-3.6-.82-3-4.58-8.4-8.88-4.22-3.38-6.85-2.87-8.16-6a8.16,8.16,0,0,1,.31-6.82c.41-.73.5-.69,2.2-2.54.54-.59,3.08-2.56,3.33-4.76a4.8,4.8,0,0,0-1-3.17C9,74.78,5.37,58.71,4.5,53.18c-.67-4.2-1.85-11.64,1-19.39C11,18.6,29.37,8.07,44.22,9.64c5.43.57,10.78,1.85,16.21,2.5,8.28,1,15.7-1.52,22.49-6.16C84.21,5.11,85.43,4.13,87.32,2.73Zm34.56,145.19h-.52c0-8.11,0-16.21,0-24.32,0-1.23-.37-2.89-1.21-3.6-5.13-4.34-10.39-8.55-15.77-12.58a4.08,4.08,0,0,0-3.78-.24c-4.47,3.38-8.73,7-13,10.64-2.36,2-3.22,4.45-3.23,7.57-.05,15.84-.12,31.69-.59,47.52a36,36,0,0,1-2.78,12.6c-2.17,5.12-5.91,9.58-8,14.71-4.84,11.55-5.7,23.15,3.47,33.17,7.48,8.17,15.62,15.72,23.29,23.72,2.62,2.73,4.69,2.68,7.07,0,7-7.81,14.47-15.2,20.79-23.5,8.56-11.24,10.25-23.73,3.38-36.67-2.15-4.07-4.66-8-6.68-12.09a18.68,18.68,0,0,1-2.21-7.39C121.73,167.62,121.88,157.77,121.88,147.92ZM94.66,66.85,68.55,93.13c.1-2.12.21-4.23.31-6.39-7,3.31-10.5,9.4-8.53,16.44,1.57,5.59,1,11,.91,16.59,0,2.84-.1,5.7.08,8.54.4,6.62,3.18,8.25,9.28,5.44A12.62,12.62,0,0,0,75,131c2.48-2.9,4.29-6.4,6.94-9.11,5.1-5.23,10.47-10.24,16-15.06,4.09-3.58,4.9-3.33,9.2.18,4.53,3.71,9.07,7.42,13.71,11,2.14,1.64,4,3.09,3.69,6.28a5,5,0,0,0,2,3.75c3.62,2.38,7.46,4.43,11.27,6.52,2.31,1.26,4.09.28,4.56-2.06.68-3.37,1.59-7,1.13-10.26a52.07,52.07,0,0,1,.63-18.33c1.48-6.91-2.9-15.23-8.58-18.26.46,2.76.92,5.53,1.18,7.07l-24-23.83c5.24,1.67,9.76-.42,13.62-4.48,1.28-1.36,2.64-2.65,4-3.94,2.29-2.19,4.74-3,7.78-1.28A60.33,60.33,0,0,0,145,61.84C138.22,52,130.55,44.9,119.64,40.42l5.24,11.77c-13.24,3.3-15,4.26-21.89,12a24.79,24.79,0,0,0-3.14-2.48c-5.27-3-10.43-6.26-16-8.61C81.19,52,81,50.83,81.73,48.78c1-2.62,2.2-5.14,3.32-7.71l-.79-.78C74.78,44.5,68.69,52.94,61,59.58c.5.3.64.44.72.41a12.23,12.23,0,0,0,1.38-.53c4.68-2.27,8.65-1.36,12,2.65.47.57,1.1,1,1.59,1.58C81.2,68.92,86.46,71,93,67.15A5.56,5.56,0,0,1,94.66,66.85ZM29.85,196.2c0-6.45-.12-12.77,0-19.09.23-10.53,2.56-20.24,11-27.57a10.5,10.5,0,0,0,3.57-9.78c-1.24-8.89-.81-17.27,7.49-23.37l-7-7.73c-4.58,4.3-5.41,9.59-5.36,14.75.09,8.73-3.09,15.94-8.39,22.59a69.52,69.52,0,0,0-7.44,10.74c-1.74,3.31-3.37,7.1-3.53,10.75C19.72,178.22,24.64,187.33,29.85,196.2Zm123.47-79.89c6.91,7.09,8.37,11.13,7.14,20.67-.72,5.58.44,10.3,4.66,14.22a24.28,24.28,0,0,1,7.93,15.66c.68,7,.74,14.13,1,21.2.09,2.48,0,5,0,7.45a76.86,76.86,0,0,0,6.17-12c4.57-11.21,4.82-21.95-3.41-31.9a120,120,0,0,1-7.17-10.46,25.33,25.33,0,0,1-4.61-14.34,41.73,41.73,0,0,0-.47-7.07c-.66-3.87-1.2-7.87-4.84-10.93ZM102.63,59.62a84.14,84.14,0,0,1,8.47-5.71c3-1.59,6.42-2.53,10.6-4.12-4-5.32-7.48-10.65-11.72-15.26-4.6-5-9.12-5-14.55-.94a33.19,33.19,0,0,0-11.1,15.85ZM69,71.45c-5.49-3.72-6.42-3.79-11.21-.59a37.78,37.78,0,0,0-5,3.91C46.47,80.69,44.15,91,47.36,96.83Q52,90.38,57.1,83.42l-3.72.66C56,76.46,62.14,73.86,69,71.45Zm67.91-.75c6.58,2.67,12.1,5.88,13.9,13.36l-3.14-.43,8.71,14.14c3.29-9.18-.27-20.28-9.07-27.52C143,66.71,141.82,66.72,136.86,70.7ZM67.17,83.13c-5.86-.54-14.05,7.66-15.91,15.4a11.11,11.11,0,0,0,6.54,12.59C54.75,99.66,58.37,90.55,67.17,83.13Zm79.73,30.36A13.94,13.94,0,0,0,152,97.08c-2.41-6.38-5.91-11.93-13-14.24C147,91.38,149.21,101.41,146.9,113.49Zm-133-19.37a46.22,46.22,0,0,1,20.92-2.56c2.1.18,4.56-.37,4.26-2.83-.18-1.37-2.45-3.35-4-3.52C26.5,84.25,19.27,87.1,13.85,94.12Zm175.91.29,1.06-1.48c-1.44-1-2.95-1.85-4.31-2.92-4.81-3.81-10.25-5.75-16.32-4.79-1.45.24-2.6,2.4-3.89,3.68,1.16.89,2.36,2.6,3.47,2.54C176.63,91.05,183.33,91.45,189.76,94.41ZM21.18,99.52c1,1.38,1.82,2.61,2.74,3.76,3.77,4.71,5.32,4.72,9.71.43,1.47-1.43,1.57-2.49.08-4C30.49,96.55,26.54,96.34,21.18,99.52Zm161.55-.06c-5.63-3.71-9.18-3-12.57,2.31C176.25,109.46,177.6,108.25,182.73,99.46ZM126.11,76.25c2.6,5.27,5.78,5.1,10,0Zm-57,0-.4,1.35c2.12.9,4.18,2.17,6.39,2.54.89.14,2.1-1.71,3.17-2.65l-.54-1.24Z" transform="translate(-3.67 -2.73)"/><path class="cls-1" d="M51.94,116.39,61.23,121c-1.14,6.14-.28,12,2.77,13.7,3.82,2.13,12.17-1.66,17.7-11.76a1.76,1.76,0,0,1,1.37-.65c.79.12,1.52,1.24,1.23,2.69,0,19.92-.34,35.78-.54,45.85A39.9,39.9,0,0,1,81.51,184c-1.66,4.6-3.55,7-5.24,9.85-.3.5-7,12.1-6.24,23.29.54,8,5.57,14,15.62,25.9,9.14,10.81,13.82,16.2,19.33,15.55,2.88-.34,3.29-2.28,13.85-14.7,10.24-12.06,13-15.69,14.8-21.74A32,32,0,0,0,135,210.09c-.56-6.41-3.32-11.52-5.64-15.91-2.58-4.9-3.62-5.38-5.16-9.33a37.88,37.88,0,0,1-2.32-11.13c-.3-5.26-.53-24.84,0-51.48a1.09,1.09,0,0,1,.36-1.25,1.16,1.16,0,0,1,1.53.74L143,117.92l10.29-1.61a20.22,20.22,0,0,1,5.89,7.42c3.79,8.46-1.65,13.78,2,21.84,2.24,4.91,4.87,4.28,8.45,11.31a39.78,39.78,0,0,1,3.37,10c.59,2.66,3.36,15.29,1,28.65-.78,4.48-3.51,16.94-20.56,37.31a189.47,189.47,0,0,1-48.69,41.1c-26.78-11.67-43-27.47-51.48-37.08C43.83,226,34.5,215.37,31.15,198.2c-2.91-14.94-1.86-37.72,7.62-46.68a17.89,17.89,0,0,0,5.55-7.63c1.9-5.62-.81-9,0-14.75C44.72,126,46.33,121.44,51.94,116.39Z" transform="translate(-3.67 -2.73)"/><path class="cls-2" d="M121.88,147.92c0,9.85-.15,19.7.1,29.54a18.68,18.68,0,0,0,2.21,7.39c2,4.13,4.53,8,6.68,12.09,6.87,12.94,5.18,25.43-3.38,36.67-6.32,8.3-13.83,15.69-20.79,23.5-2.38,2.68-4.45,2.73-7.07,0-7.67-8-15.81-15.55-23.29-23.72-9.17-10-8.31-21.62-3.47-33.17,2.14-5.13,5.88-9.59,8-14.71a36,36,0,0,0,2.78-12.6c.47-15.83.54-31.68.59-47.52,0-3.12.87-5.61,3.23-7.57,4.3-3.6,8.56-7.26,13-10.64a4.08,4.08,0,0,1,3.78.24c5.38,4,10.64,8.24,15.77,12.58.84.71,1.19,2.37,1.21,3.6.1,8.11,0,16.21,0,24.32Z" transform="translate(-3.67 -2.73)"/><path class="cls-3" d="M94.66,66.85a5.56,5.56,0,0,0-1.67.3C86.46,71,81.2,68.92,76.59,63.69c-.49-.56-1.12-1-1.59-1.58-3.3-4-7.27-4.92-12-2.65a12.23,12.23,0,0,1-1.38.53c-.08,0-.22-.11-.72-.41,7.74-6.64,13.83-15.08,23.31-19.29l.79.78c-1.12,2.57-2.35,5.09-3.32,7.71-.77,2-.54,3.23,2.14,4.37,5.55,2.35,10.71,5.63,16,8.61A24.79,24.79,0,0,1,103,64.24c6.92-7.79,8.65-8.75,21.89-12l-5.24-11.77C130.55,44.9,138.22,52,145,61.84a60.33,60.33,0,0,1-6.88-2.71c-3-1.7-5.49-.91-7.78,1.28-1.35,1.29-2.71,2.58-4,3.94-3.86,4.06-8.38,6.15-13.62,4.48l24,23.83c-.26-1.54-.72-4.31-1.18-7.07,5.68,3,10.06,11.35,8.58,18.26a52.07,52.07,0,0,0-.63,18.33c.46,3.31-.45,6.89-1.13,10.26-.47,2.34-2.25,3.32-4.56,2.06-3.81-2.09-7.65-4.14-11.27-6.52a5,5,0,0,1-2-3.75c.3-3.19-1.55-4.64-3.69-6.28-4.64-3.57-9.18-7.28-13.71-11-4.3-3.51-5.11-3.76-9.2-.18-5.51,4.82-10.88,9.83-16,15.06-2.65,2.71-4.46,6.21-6.94,9.11a12.62,12.62,0,0,1-4.37,2.8c-6.1,2.81-8.88,1.18-9.28-5.44-.18-2.84-.11-5.7-.08-8.54.06-5.55.66-11-.91-16.59-2-7,1.58-13.13,8.53-16.44-.1,2.16-.21,4.27-.31,6.39ZM136.79,99c-2.49-.7-4.23-.77-5.47-1.61a145.18,145.18,0,0,1-12-8.86c-3.25-2.72-6.21-3-9.85-.85a13.27,13.27,0,0,1-14.5-.13c-4.76-2.89-6.11-2.5-10.22,1.13s-8.6,7.27-13.36,11.26c-.16-2.29-.26-3.62-.36-5.1-6.5,6.39-8.17,22.2-.52,28.81L70,119c-.6-7.08.72-13,7.35-17.42,8.07-5.45,16.4-7.57,26.19-7.92,11.22-.39,19.33,4.4,27.25,10.89a7.67,7.67,0,0,1,3,7.57,76.49,76.49,0,0,0-.58,9.69c0,.7.7,1.42,1.07,2.12.62-.34,1.42-.53,1.82-1C140.38,117.48,140.33,103.93,136.79,99Z" transform="translate(-3.67 -2.73)"/><path class="cls-2" d="M29.85,196.2c-5.21-8.87-10.13-18-9.66-28.71.16-3.65,1.79-7.44,3.53-10.75A69.52,69.52,0,0,1,31.16,146c5.3-6.65,8.48-13.86,8.39-22.59,0-5.16.78-10.45,5.36-14.75l7,7.73c-8.3,6.1-8.73,14.48-7.49,23.37a10.5,10.5,0,0,1-3.57,9.78c-8.45,7.33-10.78,17-11,27.57C29.73,183.43,29.85,189.75,29.85,196.2Z" transform="translate(-3.67 -2.73)"/><path class="cls-2" d="M153.32,116.31l6.43-7.53c3.64,3.06,4.18,7.06,4.84,10.93a41.73,41.73,0,0,1,.47,7.07,25.33,25.33,0,0,0,4.61,14.34,120,120,0,0,0,7.17,10.46c8.23,9.95,8,20.69,3.41,31.9a76.86,76.86,0,0,1-6.17,12c0-2.49.08-5,0-7.45-.28-7.07-.34-14.17-1-21.2a24.28,24.28,0,0,0-7.93-15.66c-4.22-3.92-5.38-8.64-4.66-14.22C161.69,127.44,160.23,123.4,153.32,116.31Z" transform="translate(-3.67 -2.73)"/><path class="cls-4" d="M102.63,59.62,84.33,49.44a33.19,33.19,0,0,1,11.1-15.85c5.43-4.1,9.95-4.07,14.55.94,4.24,4.61,7.7,9.94,11.72,15.26-4.18,1.59-7.56,2.53-10.6,4.12A84.14,84.14,0,0,0,102.63,59.62Z" transform="translate(-3.67 -2.73)"/><path class="cls-3" d="M69,71.45c-6.81,2.41-12.92,5-15.57,12.63l3.72-.66q-5.06,7-9.74,13.41c-3.21-5.79-.89-16.14,5.38-22.06a37.78,37.78,0,0,1,5-3.91C62.53,67.66,63.46,67.73,69,71.45Z" transform="translate(-3.67 -2.73)"/><path class="cls-3" d="M136.86,70.7c5-4,6.11-4,10.4-.45,8.8,7.24,12.36,18.34,9.07,27.52l-8.71-14.14,3.14.43C149,76.58,143.44,73.37,136.86,70.7Z" transform="translate(-3.67 -2.73)"/><path class="cls-4" d="M67.17,83.13c-8.8,7.42-12.42,16.53-9.37,28a11.11,11.11,0,0,1-6.54-12.59C53.12,90.79,61.31,82.59,67.17,83.13Z" transform="translate(-3.67 -2.73)"/><path class="cls-4" d="M146.9,113.49c2.31-12.08.1-22.11-7.89-30.65,7.07,2.31,10.57,7.86,13,14.24A13.94,13.94,0,0,1,146.9,113.49Z" transform="translate(-3.67 -2.73)"/><path class="cls-3" d="M13.85,94.12c5.42-7,12.65-9.87,21.23-8.91,1.5.17,3.77,2.15,4,3.52.3,2.46-2.16,3-4.26,2.83A46.22,46.22,0,0,0,13.85,94.12Z" transform="translate(-3.67 -2.73)"/><path class="cls-3" d="M189.76,94.41c-6.43-3-13.13-3.36-20-3-1.11.06-2.31-1.65-3.47-2.54,1.29-1.28,2.44-3.44,3.89-3.68,6.07-1,11.51,1,16.32,4.79,1.36,1.07,2.87,1.95,4.31,2.92Z" transform="translate(-3.67 -2.73)"/><path class="cls-3" d="M21.18,99.52c5.36-3.18,9.31-3,12.53.22,1.49,1.48,1.39,2.54-.08,4-4.39,4.29-5.94,4.28-9.71-.43C23,102.13,22.19,100.9,21.18,99.52Z" transform="translate(-3.67 -2.73)"/><path class="cls-3" d="M182.73,99.46c-5.13,8.79-6.48,10-12.57,2.31C173.55,96.45,177.1,95.75,182.73,99.46Z" transform="translate(-3.67 -2.73)"/><path class="cls-3" d="M126.11,76.25h10C131.89,81.35,128.71,81.52,126.11,76.25Z" transform="translate(-3.67 -2.73)"/><path class="cls-3" d="M69.11,76.26h8.62l.54,1.24c-1.07.94-2.28,2.79-3.17,2.65-2.21-.37-4.27-1.64-6.39-2.54Z" transform="translate(-3.67 -2.73)"/><path d="M136.79,99c3.54,4.94,3.59,18.49-.68,23.88-.4.5-1.2.69-1.82,1-.37-.7-1.09-1.42-1.07-2.12a76.49,76.49,0,0,1,.58-9.69,7.67,7.67,0,0,0-3-7.57c-7.92-6.49-16-11.28-27.25-10.89-9.79.35-18.12,2.47-26.19,7.92C70.76,106,69.44,111.89,70,119l.42,4.67c-7.65-6.61-6-22.42.52-28.81.1,1.48.2,2.81.36,5.1,4.76-4,9.15-7.52,13.36-11.26s5.46-4,10.22-1.13a13.27,13.27,0,0,0,14.5.13c3.64-2.13,6.6-1.87,9.85.85a145.18,145.18,0,0,0,12,8.86C132.56,98.22,134.3,98.29,136.79,99Z" transform="translate(-3.67 -2.73)"/><path class="cls-5" d="M169,42c-.68.06-.67-2.76-3.1-5.21-.35-.35-3.42-3.34-6.73-2.51a6.59,6.59,0,0,0-3.84,3.24C152.2,43,157.28,49.11,155,51.44c-2.55,2.59-10.66-3.15-12.12-1.32s4.63,7.84,10.2,16.32a96,96,0,0,1,9.36,18.24,39.58,39.58,0,0,0,13-4.8c16.88-10,20.29-29.72,20.88-33.6A34.74,34.74,0,0,0,190.57,27c-7.72-11.46-20.31-14.17-22.38-14.58-13.12-2.6-18.26,4.42-32.88,1.93a45.42,45.42,0,0,1-15.84-6c0,1.23.25,9.1,6.48,14.16,5.39,4.37,11.93,3.94,14.47,3.78a29.78,29.78,0,0,0,5.93-1.14c3.08-.79,4-1.33,6.26-2C157,21.9,159.9,21.06,162.67,22c5.56,1.95,7,9.87,7.26,11.24C170.73,37.66,169.86,41.92,169,42Z" transform="translate(-3.67 -2.73)"/><path class="cls-5" d="M82.51,11.72c1.86,2.27-2,8.27-3.21,10.09-2,3.08-6.13,5.93-14.31,11.51C61.7,35.56,60,36.57,58,36.2c-2.72-.51-3.21-3-6-5.28-5.42-4.42-14.68-4-16.08-1.2-.77,1.55,1.34,2.84,2.88,7,3,8-1.27,13.24,1,15.6,4.72,5,29.39-12.47,31-10.32.76,1-4.73,5.44-12.24,13.68C45.36,70.07,44.14,76.39,34.75,80.36c-3,1.28-8.61,3.64-13.92,1.44C13.34,78.7,11.39,68.62,10,61.64c-1.62-8.37-5.25-27,6.48-38.64,7.62-7.55,18.12-8.57,21.36-8.88,9.9-1,11.47,2.86,22.08,2.16C73,15.42,80.29,9,82.51,11.72Z" transform="translate(-3.67 -2.73)"/><path d="M76.75-10.12" transform="translate(-3.67 -2.73)"/></svg>